<?xml version="1.0" standalone="no"?>
<!DOCTYPE svg PUBLIC "-//W3C//DTD SVG 20010904//EN"
 "http://www.w3.org/TR/2001/REC-SVG-20010904/DTD/svg10.dtd">
<svg version="1.0" xmlns="http://www.w3.org/2000/svg"
 width="512.000000pt" height="512.000000pt" viewBox="0 0 512.000000 512.000000"
 preserveAspectRatio="xMidYMid meet">
<metadata>
Created by potrace 1.14, written by Peter Selinger 2001-2017
</metadata>
<g transform="translate(0.000000,512.000000) scale(0.100000,-0.100000)"
fill="#000000" stroke="none">
<path d="M3337 4844 c-1 -1 -37 -5 -80 -9 -237 -21 -505 -127 -710 -281 -78
-59 -1593 -1568 -1614 -1609 -15 -27 -17 -123 -18 -920 -1 -490 -3 -893 -4
-896 0 -4 -139 -145 -308 -313 -281 -282 -307 -310 -318 -354 -14 -54 -4 -94
33 -137 42 -48 129 -62 180 -29 15 9 163 153 328 318 l302 301 893 1 c799 0
897 2 924 16 39 21 1514 1502 1587 1593 151 191 264 446 293 665 3 25 8 57 11
71 8 39 7 235 0 299 -27 218 -93 417 -194 585 -230 384 -621 637 -1067 691
-54 6 -233 12 -238 8z m218 -308 c131 -17 284 -67 395 -129 120 -66 163 -99
268 -205 211 -212 320 -479 324 -792 2 -220 -75 -462 -210 -654 -35 -50 -152
-172 -490 -512 l-174 -174 -689 0 c-379 0 -689 2 -689 4 0 2 280 283 622 625
341 342 627 634 635 648 26 51 18 119 -21 161 -48 54 -132 70 -184 36 -15 -9
-498 -488 -1074 -1064 -576 -576 -1049 -1042 -1050 -1036 -2 6 -3 317 -3 692
l1 680 735 735 c766 765 799 795 965 877 194 96 430 136 639 108z m-195 -2771
c0 -3 -123 -128 -273 -278 l-272 -272 -685 1 c-377 1 -688 2 -692 3 -3 1 118
125 269 276 l276 275 688 0 c379 0 689 -2 689 -5z"/>
</g>
</svg>
