<svg width="310" height="238" viewBox="0 0 310 238" fill="none" xmlns="http://www.w3.org/2000/svg">
<g filter="url(#filter0_d_19_74)">
<rect x="20" y="18" width="270" height="198" rx="26" fill="white"/>
<path d="M70.0262 55.5591C70.0262 56.1898 69.7415 56.7946 69.2347 57.2405C68.7278 57.6865 68.0404 57.937 67.3236 57.937H45.7026C44.9858 57.937 44.2984 57.6865 43.7916 57.2405C43.2847 56.7946 43 56.1898 43 55.5591V38.9142C43 38.2836 43.2847 37.6788 43.7916 37.2328C44.2984 36.7869 44.9858 36.5364 45.7026 36.5364H52.4592L55.1618 40.1031H67.3236C68.0404 40.1031 68.7278 40.3537 69.2347 40.7996C69.7415 41.2455 70.0262 41.8503 70.0262 42.481V55.5591Z" stroke="black" stroke-width="3" stroke-linecap="round" stroke-linejoin="round"/>
<path d="M87.6585 55.2C86.4452 55.2 85.4518 54.7267 84.6785 53.78C83.9185 52.82 83.5385 51.4133 83.5385 49.56C83.5385 47.6933 83.9252 46.28 84.6985 45.32C85.4718 44.36 86.4852 43.88 87.7385 43.88C88.5252 43.88 89.1718 44.0333 89.6785 44.34C90.1852 44.6467 90.5852 45.0267 90.8785 45.48H90.9785C90.9385 45.2667 90.8918 44.96 90.8385 44.56C90.7852 44.1467 90.7585 43.7267 90.7585 43.3V39.8H93.7385V55H91.4585L90.8785 53.58H90.7585C90.4652 54.0333 90.0718 54.42 89.5785 54.74C89.0852 55.0467 88.4452 55.2 87.6585 55.2ZM88.6985 52.82C89.5252 52.82 90.1052 52.58 90.4385 52.1C90.7718 51.6067 90.9452 50.8733 90.9585 49.9V49.58C90.9585 48.5133 90.7918 47.7 90.4585 47.14C90.1385 46.58 89.5385 46.3 88.6585 46.3C88.0052 46.3 87.4918 46.5867 87.1185 47.16C86.7452 47.72 86.5585 48.5333 86.5585 49.6C86.5585 50.6667 86.7452 51.4733 87.1185 52.02C87.4918 52.5533 88.0185 52.82 88.6985 52.82ZM98.3547 39.8C98.7947 39.8 99.1747 39.9067 99.4947 40.12C99.8147 40.32 99.9747 40.7 99.9747 41.26C99.9747 41.8067 99.8147 42.1867 99.4947 42.4C99.1747 42.6133 98.7947 42.72 98.3547 42.72C97.9014 42.72 97.5147 42.6133 97.1947 42.4C96.8881 42.1867 96.7347 41.8067 96.7347 41.26C96.7347 40.7 96.8881 40.32 97.1947 40.12C97.5147 39.9067 97.9014 39.8 98.3547 39.8ZM99.8347 44.08V55H96.8547V44.08H99.8347ZM110.568 51.76C110.568 52.8667 110.175 53.72 109.388 54.32C108.615 54.9067 107.455 55.2 105.908 55.2C105.148 55.2 104.495 55.1467 103.948 55.04C103.402 54.9467 102.855 54.7867 102.308 54.56V52.1C102.895 52.3667 103.528 52.5867 104.208 52.76C104.888 52.9333 105.488 53.02 106.008 53.02C106.595 53.02 107.008 52.9333 107.248 52.76C107.502 52.5867 107.628 52.36 107.628 52.08C107.628 51.8933 107.575 51.7267 107.468 51.58C107.375 51.4333 107.162 51.2667 106.828 51.08C106.495 50.8933 105.975 50.6533 105.268 50.36C104.588 50.0667 104.028 49.78 103.588 49.5C103.148 49.2067 102.822 48.86 102.608 48.46C102.395 48.0467 102.288 47.5333 102.288 46.92C102.288 45.9067 102.682 45.1467 103.468 44.64C104.255 44.1333 105.302 43.88 106.608 43.88C107.288 43.88 107.935 43.9467 108.548 44.08C109.162 44.2133 109.795 44.4333 110.448 44.74L109.548 46.88C109.015 46.6533 108.508 46.4667 108.028 46.32C107.548 46.16 107.062 46.08 106.568 46.08C105.688 46.08 105.248 46.32 105.248 46.8C105.248 46.9733 105.302 47.1333 105.408 47.28C105.528 47.4133 105.748 47.56 106.068 47.72C106.402 47.88 106.888 48.0933 107.528 48.36C108.155 48.6133 108.695 48.88 109.148 49.16C109.602 49.4267 109.948 49.7667 110.188 50.18C110.442 50.58 110.568 51.1067 110.568 51.76ZM117.49 52.82C117.823 52.82 118.143 52.7867 118.45 52.72C118.757 52.6533 119.063 52.5733 119.37 52.48V54.7C119.05 54.8333 118.65 54.9467 118.17 55.04C117.703 55.1467 117.19 55.2 116.63 55.2C115.977 55.2 115.39 55.0933 114.87 54.88C114.363 54.6667 113.957 54.3 113.65 53.78C113.357 53.2467 113.21 52.5133 113.21 51.58V46.32H111.79V45.06L113.43 44.06L114.29 41.76H116.19V44.08H119.25V46.32H116.19V51.58C116.19 51.9933 116.31 52.3067 116.55 52.52C116.79 52.72 117.103 52.82 117.49 52.82Z" fill="black"/>
<path d="M111.917 96.3954L110.877 92.9954H105.677L104.637 96.3954H101.377L106.417 82.0554H110.117L115.177 96.3954H111.917ZM109.117 87.1354C109.05 86.9087 108.963 86.6221 108.857 86.2754C108.75 85.9287 108.643 85.5754 108.537 85.2154C108.43 84.8554 108.343 84.5421 108.277 84.2754C108.21 84.5421 108.117 84.8754 107.997 85.2754C107.89 85.6621 107.783 86.0354 107.677 86.3954C107.583 86.7421 107.51 86.9887 107.457 87.1354L106.437 90.4554H110.157L109.117 87.1354ZM122.825 85.2754C124.052 85.2754 125.045 85.7554 125.805 86.7154C126.565 87.6621 126.945 89.0621 126.945 90.9154C126.945 92.7687 126.552 94.1821 125.765 95.1554C124.979 96.1154 123.972 96.5954 122.745 96.5954C121.959 96.5954 121.332 96.4554 120.865 96.1754C120.399 95.8821 120.019 95.5554 119.725 95.1954H119.565C119.672 95.7554 119.725 96.2887 119.725 96.7954V101.195H116.745V85.4754H119.165L119.585 86.8954H119.725C120.019 86.4554 120.412 86.0754 120.905 85.7554C121.399 85.4354 122.039 85.2754 122.825 85.2754ZM121.865 87.6554C121.092 87.6554 120.545 87.8954 120.225 88.3754C119.919 88.8554 119.752 89.5887 119.725 90.5754V90.8954C119.725 91.9487 119.879 92.7621 120.185 93.3354C120.505 93.8954 121.079 94.1754 121.905 94.1754C122.585 94.1754 123.085 93.8954 123.405 93.3354C123.739 92.7621 123.905 91.9421 123.905 90.8754C123.905 88.7287 123.225 87.6554 121.865 87.6554ZM135.482 85.2754C136.708 85.2754 137.702 85.7554 138.462 86.7154C139.222 87.6621 139.602 89.0621 139.602 90.9154C139.602 92.7687 139.208 94.1821 138.422 95.1554C137.635 96.1154 136.628 96.5954 135.402 96.5954C134.615 96.5954 133.988 96.4554 133.522 96.1754C133.055 95.8821 132.675 95.5554 132.382 95.1954H132.222C132.328 95.7554 132.382 96.2887 132.382 96.7954V101.195H129.402V85.4754H131.822L132.242 86.8954H132.382C132.675 86.4554 133.068 86.0754 133.562 85.7554C134.055 85.4354 134.695 85.2754 135.482 85.2754ZM134.522 87.6554C133.748 87.6554 133.202 87.8954 132.882 88.3754C132.575 88.8554 132.408 89.5887 132.382 90.5754V90.8954C132.382 91.9487 132.535 92.7621 132.842 93.3354C133.162 93.8954 133.735 94.1754 134.562 94.1754C135.242 94.1754 135.742 93.8954 136.062 93.3354C136.395 92.7621 136.562 91.9421 136.562 90.8754C136.562 88.7287 135.882 87.6554 134.522 87.6554ZM141.638 94.9954C141.638 94.3821 141.804 93.9554 142.138 93.7154C142.471 93.4621 142.878 93.3354 143.358 93.3354C143.824 93.3354 144.224 93.4621 144.558 93.7154C144.891 93.9554 145.058 94.3821 145.058 94.9954C145.058 95.5821 144.891 96.0087 144.558 96.2754C144.224 96.5287 143.824 96.6554 143.358 96.6554C142.878 96.6554 142.471 96.5287 142.138 96.2754C141.804 96.0087 141.638 95.5821 141.638 94.9954ZM147.641 82.6554C147.641 82.0954 147.794 81.7154 148.101 81.5154C148.421 81.3021 148.808 81.1954 149.261 81.1954C149.701 81.1954 150.081 81.3021 150.401 81.5154C150.721 81.7154 150.881 82.0954 150.881 82.6554C150.881 83.2021 150.721 83.5821 150.401 83.7954C150.081 84.0087 149.701 84.1154 149.261 84.1154C148.808 84.1154 148.421 84.0087 148.101 83.7954C147.794 83.5821 147.641 83.2021 147.641 82.6554ZM146.881 101.195C146.548 101.195 146.201 101.169 145.841 101.115C145.468 101.075 145.161 101.022 144.921 100.955V98.6154C145.161 98.6687 145.388 98.7087 145.601 98.7354C145.814 98.7754 146.054 98.7954 146.321 98.7954C146.721 98.7954 147.061 98.6821 147.341 98.4554C147.621 98.2287 147.761 97.7887 147.761 97.1354V85.4754H150.741V97.5754C150.741 98.2421 150.614 98.8487 150.361 99.3954C150.108 99.9421 149.694 100.375 149.121 100.695C148.561 101.029 147.814 101.195 146.881 101.195ZM161.475 93.1554C161.475 94.2621 161.081 95.1154 160.295 95.7154C159.521 96.3021 158.361 96.5954 156.815 96.5954C156.055 96.5954 155.401 96.5421 154.855 96.4354C154.308 96.3421 153.761 96.1821 153.215 95.9554V93.4954C153.801 93.7621 154.435 93.9821 155.115 94.1554C155.795 94.3287 156.395 94.4154 156.915 94.4154C157.501 94.4154 157.915 94.3287 158.155 94.1554C158.408 93.9821 158.535 93.7554 158.535 93.4754C158.535 93.2887 158.481 93.1221 158.375 92.9754C158.281 92.8287 158.068 92.6621 157.735 92.4754C157.401 92.2887 156.881 92.0487 156.175 91.7554C155.495 91.4621 154.935 91.1754 154.495 90.8954C154.055 90.6021 153.728 90.2554 153.515 89.8554C153.301 89.4421 153.195 88.9287 153.195 88.3154C153.195 87.3021 153.588 86.5421 154.375 86.0354C155.161 85.5287 156.208 85.2754 157.515 85.2754C158.195 85.2754 158.841 85.3421 159.455 85.4754C160.068 85.6087 160.701 85.8287 161.355 86.1354L160.455 88.2754C159.921 88.0487 159.415 87.8621 158.935 87.7154C158.455 87.5554 157.968 87.4754 157.475 87.4754C156.595 87.4754 156.155 87.7154 156.155 88.1954C156.155 88.3687 156.208 88.5287 156.315 88.6754C156.435 88.8087 156.655 88.9554 156.975 89.1154C157.308 89.2754 157.795 89.4887 158.435 89.7554C159.061 90.0087 159.601 90.2754 160.055 90.5554C160.508 90.8221 160.855 91.1621 161.095 91.5754C161.348 91.9754 161.475 92.5021 161.475 93.1554Z" fill="black"/>
<path d="M75.4315 76.0295H65.3417C64.5772 76.0295 63.8439 76.2967 63.3033 76.7724C62.7626 77.248 62.4589 77.8932 62.4589 78.5658V98.8568C62.4589 99.5295 62.7626 100.175 63.3033 100.65C63.8439 101.126 64.5772 101.393 65.3417 101.393H82.6385C83.4031 101.393 84.1363 101.126 84.677 100.65C85.2176 100.175 85.5213 99.5295 85.5213 98.8568V84.9068L75.4315 76.0295Z" stroke="black" stroke-width="3" stroke-linecap="round" stroke-linejoin="round"/>
<path d="M75.4315 76.0295V84.9068H85.5213" stroke="black" stroke-width="3" stroke-linecap="round" stroke-linejoin="round"/>
<path d="M104.437 124.802C104.877 124.802 105.257 124.909 105.577 125.122C105.897 125.322 106.057 125.702 106.057 126.262C106.057 126.809 105.897 127.189 105.577 127.402C105.257 127.616 104.877 127.722 104.437 127.722C103.983 127.722 103.597 127.616 103.277 127.402C102.97 127.189 102.817 126.809 102.817 126.262C102.817 125.702 102.97 125.322 103.277 125.122C103.597 124.909 103.983 124.802 104.437 124.802ZM105.917 129.082V140.002H102.937V129.082H105.917ZM115.23 128.882C116.404 128.882 117.344 129.202 118.05 129.842C118.757 130.469 119.11 131.482 119.11 132.882V140.002H116.13V133.622C116.13 132.836 115.99 132.249 115.71 131.862C115.43 131.462 114.984 131.262 114.37 131.262C113.464 131.262 112.844 131.576 112.51 132.202C112.177 132.816 112.01 133.702 112.01 134.862V140.002H109.03V129.082H111.31L111.71 130.482H111.87C112.217 129.922 112.69 129.516 113.29 129.262C113.904 129.009 114.55 128.882 115.23 128.882ZM125.635 140.202C124.422 140.202 123.428 139.729 122.655 138.782C121.895 137.822 121.515 136.416 121.515 134.562C121.515 132.696 121.902 131.282 122.675 130.322C123.448 129.362 124.462 128.882 125.715 128.882C126.502 128.882 127.148 129.036 127.655 129.342C128.162 129.649 128.562 130.029 128.855 130.482H128.955C128.915 130.269 128.868 129.962 128.815 129.562C128.762 129.149 128.735 128.729 128.735 128.302V124.802H131.715V140.002H129.435L128.855 138.582H128.735C128.442 139.036 128.048 139.422 127.555 139.742C127.062 140.049 126.422 140.202 125.635 140.202ZM126.675 137.822C127.502 137.822 128.082 137.582 128.415 137.102C128.748 136.609 128.922 135.876 128.935 134.902V134.582C128.935 133.516 128.768 132.702 128.435 132.142C128.115 131.582 127.515 131.302 126.635 131.302C125.982 131.302 125.468 131.589 125.095 132.162C124.722 132.722 124.535 133.536 124.535 134.602C124.535 135.669 124.722 136.476 125.095 137.022C125.468 137.556 125.995 137.822 126.675 137.822ZM139.331 128.882C140.838 128.882 142.031 129.316 142.911 130.182C143.791 131.036 144.231 132.256 144.231 133.842V135.282H137.191C137.218 136.122 137.465 136.782 137.931 137.262C138.411 137.742 139.071 137.982 139.911 137.982C140.618 137.982 141.258 137.916 141.831 137.782C142.405 137.636 142.998 137.416 143.611 137.122V139.422C143.078 139.689 142.511 139.882 141.911 140.002C141.325 140.136 140.611 140.202 139.771 140.202C138.678 140.202 137.711 140.002 136.871 139.602C136.031 139.189 135.371 138.569 134.891 137.742C134.411 136.916 134.171 135.876 134.171 134.622C134.171 133.342 134.385 132.282 134.811 131.442C135.251 130.589 135.858 129.949 136.631 129.522C137.405 129.096 138.305 128.882 139.331 128.882ZM139.351 131.002C138.778 131.002 138.298 131.189 137.911 131.562C137.538 131.936 137.318 132.516 137.251 133.302H141.431C141.418 132.636 141.245 132.089 140.911 131.662C140.578 131.222 140.058 131.002 139.351 131.002ZM148.497 134.422L144.977 129.082H148.357L150.477 132.562L152.617 129.082H155.997L152.437 134.422L156.157 140.002H152.777L150.477 136.262L148.177 140.002H144.797L148.497 134.422ZM157.4 138.602C157.4 137.989 157.566 137.562 157.9 137.322C158.233 137.069 158.64 136.942 159.12 136.942C159.586 136.942 159.986 137.069 160.32 137.322C160.653 137.562 160.82 137.989 160.82 138.602C160.82 139.189 160.653 139.616 160.32 139.882C159.986 140.136 159.586 140.262 159.12 140.262C158.64 140.262 158.233 140.136 157.9 139.882C157.566 139.616 157.4 139.189 157.4 138.602ZM166.503 127.902C166.503 128.436 166.483 128.949 166.443 129.442C166.416 129.936 166.389 130.282 166.363 130.482H166.523C166.869 129.922 167.316 129.516 167.863 129.262C168.409 129.009 169.016 128.882 169.683 128.882C170.869 128.882 171.816 129.202 172.523 129.842C173.243 130.469 173.603 131.482 173.603 132.882V140.002H170.623V133.622C170.623 132.049 170.036 131.262 168.863 131.262C167.969 131.262 167.349 131.576 167.003 132.202C166.669 132.816 166.503 133.702 166.503 134.862V140.002H163.523V124.802H166.503V127.902ZM181.267 137.822C181.601 137.822 181.921 137.789 182.227 137.722C182.534 137.656 182.841 137.576 183.147 137.482V139.702C182.827 139.836 182.427 139.949 181.947 140.042C181.481 140.149 180.967 140.202 180.407 140.202C179.754 140.202 179.167 140.096 178.647 139.882C178.141 139.669 177.734 139.302 177.427 138.782C177.134 138.249 176.987 137.516 176.987 136.582V131.322H175.567V130.062L177.207 129.062L178.067 126.762H179.967V129.082H183.027V131.322H179.967V136.582C179.967 136.996 180.087 137.309 180.327 137.522C180.567 137.722 180.881 137.822 181.267 137.822ZM198.159 128.882C199.399 128.882 200.332 129.202 200.959 129.842C201.599 130.469 201.919 131.482 201.919 132.882V140.002H198.939V133.622C198.939 132.049 198.392 131.262 197.299 131.262C196.512 131.262 195.952 131.542 195.619 132.102C195.286 132.662 195.119 133.469 195.119 134.522V140.002H192.139V133.622C192.139 132.049 191.592 131.262 190.499 131.262C189.672 131.262 189.099 131.576 188.779 132.202C188.472 132.816 188.319 133.702 188.319 134.862V140.002H185.339V129.082H187.619L188.019 130.482H188.179C188.512 129.922 188.966 129.516 189.539 129.262C190.126 129.009 190.732 128.882 191.359 128.882C192.159 128.882 192.839 129.016 193.399 129.282C193.959 129.536 194.386 129.936 194.679 130.482H194.939C195.272 129.922 195.732 129.516 196.319 129.262C196.919 129.009 197.532 128.882 198.159 128.882ZM207.967 140.002H204.987V124.802H207.967V140.002Z" fill="black"/>
<path d="M76.8729 119.636H65.3417C64.5772 119.636 63.8439 119.904 63.3033 120.379C62.7626 120.855 62.4589 121.5 62.4589 122.173V142.464C62.4589 143.136 62.7626 143.782 63.3033 144.257C63.8439 144.733 64.5772 145 65.3417 145H82.6385C83.4031 145 84.1363 144.733 84.677 144.257C85.2176 143.782 85.5213 143.136 85.5213 142.464V127.246L76.8729 119.636Z" stroke="black" stroke-width="3" stroke-linecap="round" stroke-linejoin="round"/>
<path d="M76.8729 119.636V127.246H85.5213" stroke="black" stroke-width="3" stroke-linecap="round" stroke-linejoin="round"/>
<path d="M79.7557 133.587H68.2245" stroke="black" stroke-width="3" stroke-linecap="round" stroke-linejoin="round"/>
<path d="M79.7557 138.659H68.2245" stroke="black" stroke-width="3" stroke-linecap="round" stroke-linejoin="round"/>
<path d="M71.1073 128.514H69.6659H68.2245" stroke="black" stroke-width="3" stroke-linecap="round" stroke-linejoin="round"/>
<path d="M109.31 172.489C110.537 172.489 111.53 172.969 112.29 173.929C113.05 174.876 113.43 176.276 113.43 178.129C113.43 179.983 113.037 181.396 112.25 182.369C111.464 183.329 110.457 183.809 109.23 183.809C108.444 183.809 107.817 183.669 107.35 183.389C106.884 183.096 106.504 182.769 106.21 182.409H106.05C106.157 182.969 106.21 183.503 106.21 184.009V188.409H103.23V172.689H105.65L106.07 174.109H106.21C106.504 173.669 106.897 173.289 107.39 172.969C107.884 172.649 108.524 172.489 109.31 172.489ZM108.35 174.869C107.577 174.869 107.03 175.109 106.71 175.589C106.404 176.069 106.237 176.803 106.21 177.789V178.109C106.21 179.163 106.364 179.976 106.67 180.549C106.99 181.109 107.564 181.389 108.39 181.389C109.07 181.389 109.57 181.109 109.89 180.549C110.224 179.976 110.39 179.156 110.39 178.089C110.39 175.943 109.71 174.869 108.35 174.869ZM121.987 172.489C122.133 172.489 122.307 172.496 122.507 172.509C122.707 172.523 122.867 172.543 122.987 172.569L122.767 175.369C122.673 175.343 122.533 175.323 122.347 175.309C122.173 175.283 122.02 175.269 121.887 175.269C121.38 175.269 120.893 175.363 120.427 175.549C119.96 175.723 119.58 176.009 119.287 176.409C119.007 176.809 118.867 177.356 118.867 178.049V183.609H115.887V172.689H118.147L118.587 174.529H118.727C119.047 173.969 119.487 173.489 120.047 173.089C120.607 172.689 121.253 172.489 121.987 172.489ZM126.469 168.409C126.909 168.409 127.289 168.516 127.609 168.729C127.929 168.929 128.089 169.309 128.089 169.869C128.089 170.416 127.929 170.796 127.609 171.009C127.289 171.223 126.909 171.329 126.469 171.329C126.015 171.329 125.629 171.223 125.309 171.009C125.002 170.796 124.849 170.416 124.849 169.869C124.849 169.309 125.002 168.929 125.309 168.729C125.629 168.516 126.015 168.409 126.469 168.409ZM127.949 172.689V183.609H124.969V172.689H127.949ZM135.502 183.809C133.876 183.809 132.616 183.363 131.722 182.469C130.842 181.563 130.402 180.143 130.402 178.209C130.402 176.876 130.629 175.789 131.082 174.949C131.536 174.109 132.162 173.489 132.962 173.089C133.776 172.689 134.709 172.489 135.762 172.489C136.509 172.489 137.156 172.563 137.702 172.709C138.262 172.856 138.749 173.029 139.162 173.229L138.282 175.529C137.816 175.343 137.376 175.189 136.962 175.069C136.562 174.949 136.162 174.889 135.762 174.889C134.216 174.889 133.442 175.989 133.442 178.189C133.442 179.283 133.642 180.089 134.042 180.609C134.456 181.129 135.029 181.389 135.762 181.389C136.389 181.389 136.942 181.309 137.422 181.149C137.902 180.976 138.369 180.743 138.822 180.449V182.989C138.369 183.283 137.889 183.489 137.382 183.609C136.889 183.743 136.262 183.809 135.502 183.809ZM142.836 168.409C143.276 168.409 143.656 168.516 143.976 168.729C144.296 168.929 144.456 169.309 144.456 169.869C144.456 170.416 144.296 170.796 143.976 171.009C143.656 171.223 143.276 171.329 142.836 171.329C142.383 171.329 141.996 171.223 141.676 171.009C141.369 170.796 141.216 170.416 141.216 169.869C141.216 169.309 141.369 168.929 141.676 168.729C141.996 168.516 142.383 168.409 142.836 168.409ZM144.316 172.689V183.609H141.336V172.689H144.316ZM153.63 172.489C154.803 172.489 155.743 172.809 156.45 173.449C157.156 174.076 157.51 175.089 157.51 176.489V183.609H154.53V177.229C154.53 176.443 154.39 175.856 154.11 175.469C153.83 175.069 153.383 174.869 152.77 174.869C151.863 174.869 151.243 175.183 150.91 175.809C150.576 176.423 150.41 177.309 150.41 178.469V183.609H147.43V172.689H149.71L150.11 174.089H150.27C150.616 173.529 151.09 173.123 151.69 172.869C152.303 172.616 152.95 172.489 153.63 172.489ZM164.114 172.489C165.461 172.489 166.514 173.023 167.274 174.089H167.354L167.594 172.689H170.114V183.629C170.114 185.189 169.654 186.376 168.734 187.189C167.814 188.003 166.454 188.409 164.654 188.409C163.881 188.409 163.161 188.363 162.494 188.269C161.841 188.176 161.201 188.009 160.574 187.769V185.389C161.921 185.949 163.341 186.229 164.834 186.229C166.367 186.229 167.134 185.403 167.134 183.749V183.529C167.134 183.303 167.141 183.069 167.154 182.829C167.181 182.589 167.201 182.376 167.214 182.189H167.134C166.761 182.763 166.314 183.176 165.794 183.429C165.274 183.683 164.687 183.809 164.034 183.809C162.741 183.809 161.727 183.316 160.994 182.329C160.274 181.329 159.914 179.943 159.914 178.169C159.914 176.383 160.287 174.989 161.034 173.989C161.781 172.989 162.807 172.489 164.114 172.489ZM165.054 174.909C163.654 174.909 162.954 176.009 162.954 178.209C162.954 180.383 163.667 181.469 165.094 181.469C165.854 181.469 166.414 181.256 166.774 180.829C167.147 180.389 167.334 179.629 167.334 178.549V178.189C167.334 177.016 167.154 176.176 166.794 175.669C166.434 175.163 165.854 174.909 165.054 174.909ZM172.81 182.209C172.81 181.596 172.977 181.169 173.31 180.929C173.644 180.676 174.05 180.549 174.53 180.549C174.997 180.549 175.397 180.676 175.73 180.929C176.064 181.169 176.23 181.596 176.23 182.209C176.23 182.796 176.064 183.223 175.73 183.489C175.397 183.743 174.997 183.869 174.53 183.869C174.05 183.869 173.644 183.743 173.31 183.489C172.977 183.223 172.81 182.796 172.81 182.209ZM181.914 171.509C181.914 172.043 181.894 172.556 181.854 173.049C181.827 173.543 181.8 173.889 181.774 174.089H181.934C182.28 173.529 182.727 173.123 183.274 172.869C183.82 172.616 184.427 172.489 185.094 172.489C186.28 172.489 187.227 172.809 187.934 173.449C188.654 174.076 189.014 175.089 189.014 176.489V183.609H186.034V177.229C186.034 175.656 185.447 174.869 184.274 174.869C183.38 174.869 182.76 175.183 182.414 175.809C182.08 176.423 181.914 177.309 181.914 178.469V183.609H178.934V168.409H181.914V171.509ZM196.678 181.429C197.011 181.429 197.331 181.396 197.638 181.329C197.945 181.263 198.251 181.183 198.558 181.089V183.309C198.238 183.443 197.838 183.556 197.358 183.649C196.891 183.756 196.378 183.809 195.818 183.809C195.165 183.809 194.578 183.703 194.058 183.489C193.551 183.276 193.145 182.909 192.838 182.389C192.545 181.856 192.398 181.123 192.398 180.189V174.929H190.978V173.669L192.618 172.669L193.478 170.369H195.378V172.689H198.438V174.929H195.378V180.189C195.378 180.603 195.498 180.916 195.738 181.129C195.978 181.329 196.291 181.429 196.678 181.429ZM213.57 172.489C214.81 172.489 215.743 172.809 216.37 173.449C217.01 174.076 217.33 175.089 217.33 176.489V183.609H214.35V177.229C214.35 175.656 213.803 174.869 212.71 174.869C211.923 174.869 211.363 175.149 211.03 175.709C210.697 176.269 210.53 177.076 210.53 178.129V183.609H207.55V177.229C207.55 175.656 207.003 174.869 205.91 174.869C205.083 174.869 204.51 175.183 204.19 175.809C203.883 176.423 203.73 177.309 203.73 178.469V183.609H200.75V172.689H203.03L203.43 174.089H203.59C203.923 173.529 204.377 173.123 204.95 172.869C205.537 172.616 206.143 172.489 206.77 172.489C207.57 172.489 208.25 172.623 208.81 172.889C209.37 173.143 209.797 173.543 210.09 174.089H210.35C210.683 173.529 211.143 173.123 211.73 172.869C212.33 172.616 212.943 172.489 213.57 172.489ZM223.378 183.609H220.398V168.409H223.378V183.609Z" fill="black"/>
<path d="M77.1667 163.243H65.6355C64.871 163.243 64.1377 163.511 63.5971 163.986C63.0565 164.462 62.7527 165.107 62.7527 165.78V186.071C62.7527 186.743 63.0565 187.389 63.5971 187.864C64.1377 188.34 64.871 188.607 65.6355 188.607H82.9323C83.6969 188.607 84.4302 188.34 84.9708 187.864C85.5114 187.389 85.8151 186.743 85.8151 186.071V170.853L77.1667 163.243Z" stroke="black" stroke-width="3" stroke-linecap="round" stroke-linejoin="round"/>
<path d="M77.1667 163.243V170.853H85.8151" stroke="black" stroke-width="3" stroke-linecap="round" stroke-linejoin="round"/>
<path d="M80.0495 177.193H68.5183" stroke="black" stroke-width="3" stroke-linecap="round" stroke-linejoin="round"/>
<path d="M80.0495 182.266H68.5183" stroke="black" stroke-width="3" stroke-linecap="round" stroke-linejoin="round"/>
<path d="M71.4011 172.121H69.9597H68.5183" stroke="black" stroke-width="3" stroke-linecap="round" stroke-linejoin="round"/>
</g>
<defs>
<filter id="filter0_d_19_74" x="0" y="0" width="310" height="238" filterUnits="userSpaceOnUse" color-interpolation-filters="sRGB">
<feFlood flood-opacity="0" result="BackgroundImageFix"/>
<feColorMatrix in="SourceAlpha" type="matrix" values="0 0 0 0 0 0 0 0 0 0 0 0 0 0 0 0 0 0 127 0" result="hardAlpha"/>
<feOffset dy="2"/>
<feGaussianBlur stdDeviation="10"/>
<feComposite in2="hardAlpha" operator="out"/>
<feColorMatrix type="matrix" values="0 0 0 0 0 0 0 0 0 0 0 0 0 0 0 0 0 0 0.4 0"/>
<feBlend mode="normal" in2="BackgroundImageFix" result="effect1_dropShadow_19_74"/>
<feBlend mode="normal" in="SourceGraphic" in2="effect1_dropShadow_19_74" result="shape"/>
</filter>
</defs>
</svg>
