<svg width="310" height="274" viewBox="0 0 310 274" fill="none" xmlns="http://www.w3.org/2000/svg">
<g filter="url(#filter0_d_23_2)">
<rect x="20" y="18" width="270" height="234" rx="26" fill="white"/>
</g>
<path d="M112.848 206.203C112.848 206.97 112.502 207.705 111.886 208.247C111.27 208.789 110.434 209.093 109.563 209.093H83.2848C82.4136 209.093 81.5781 208.789 80.9621 208.247C80.3461 207.705 80 206.97 80 206.203V185.973C80 185.206 80.3461 184.471 80.9621 183.929C81.5781 183.387 82.4136 183.083 83.2848 183.083H91.4967L94.7815 187.418H109.563C110.434 187.418 111.27 187.722 111.886 188.264C112.502 188.806 112.848 189.541 112.848 190.308V206.203Z" stroke="black" stroke-width="4" stroke-linecap="round" stroke-linejoin="round"/>
<path d="M134.275 207.25C132.758 207.25 131.517 206.658 130.55 205.475C129.6 204.275 129.125 202.517 129.125 200.2C129.125 197.867 129.608 196.1 130.575 194.9C131.542 193.7 132.808 193.1 134.375 193.1C135.358 193.1 136.167 193.292 136.8 193.675C137.433 194.058 137.933 194.533 138.3 195.1H138.425C138.375 194.833 138.317 194.45 138.25 193.95C138.183 193.433 138.15 192.908 138.15 192.375V188H141.875V207H139.025L138.3 205.225H138.15C137.783 205.792 137.292 206.275 136.675 206.675C136.058 207.058 135.258 207.25 134.275 207.25ZM135.575 204.275C136.608 204.275 137.333 203.975 137.75 203.375C138.167 202.758 138.383 201.842 138.4 200.625V200.225C138.4 198.892 138.192 197.875 137.775 197.175C137.375 196.475 136.625 196.125 135.525 196.125C134.708 196.125 134.067 196.483 133.6 197.2C133.133 197.9 132.9 198.917 132.9 200.25C132.9 201.583 133.133 202.592 133.6 203.275C134.067 203.942 134.725 204.275 135.575 204.275ZM147.645 188C148.195 188 148.67 188.133 149.07 188.4C149.47 188.65 149.67 189.125 149.67 189.825C149.67 190.508 149.47 190.983 149.07 191.25C148.67 191.517 148.195 191.65 147.645 191.65C147.079 191.65 146.595 191.517 146.195 191.25C145.812 190.983 145.62 190.508 145.62 189.825C145.62 189.125 145.812 188.65 146.195 188.4C146.595 188.133 147.079 188 147.645 188ZM149.495 193.35V207H145.77V193.35H149.495ZM162.913 202.95C162.913 204.333 162.421 205.4 161.438 206.15C160.471 206.883 159.021 207.25 157.088 207.25C156.138 207.25 155.321 207.183 154.638 207.05C153.954 206.933 153.271 206.733 152.588 206.45V203.375C153.321 203.708 154.113 203.983 154.963 204.2C155.813 204.417 156.563 204.525 157.213 204.525C157.946 204.525 158.463 204.417 158.763 204.2C159.079 203.983 159.238 203.7 159.238 203.35C159.238 203.117 159.171 202.908 159.038 202.725C158.921 202.542 158.654 202.333 158.238 202.1C157.821 201.867 157.171 201.567 156.288 201.2C155.438 200.833 154.738 200.475 154.188 200.125C153.638 199.758 153.229 199.325 152.963 198.825C152.696 198.308 152.563 197.667 152.563 196.9C152.563 195.633 153.054 194.683 154.038 194.05C155.021 193.417 156.329 193.1 157.963 193.1C158.813 193.1 159.621 193.183 160.388 193.35C161.154 193.517 161.946 193.792 162.763 194.175L161.638 196.85C160.971 196.567 160.338 196.333 159.738 196.15C159.138 195.95 158.529 195.85 157.913 195.85C156.813 195.85 156.263 196.15 156.263 196.75C156.263 196.967 156.329 197.167 156.463 197.35C156.613 197.517 156.888 197.7 157.288 197.9C157.704 198.1 158.313 198.367 159.113 198.7C159.896 199.017 160.571 199.35 161.138 199.7C161.704 200.033 162.138 200.458 162.438 200.975C162.754 201.475 162.913 202.133 162.913 202.95ZM171.564 204.275C171.981 204.275 172.381 204.233 172.764 204.15C173.148 204.067 173.531 203.967 173.914 203.85V206.625C173.514 206.792 173.014 206.933 172.414 207.05C171.831 207.183 171.189 207.25 170.489 207.25C169.673 207.25 168.939 207.117 168.289 206.85C167.656 206.583 167.148 206.125 166.764 205.475C166.398 204.808 166.214 203.892 166.214 202.725V196.15H164.439V194.575L166.489 193.325L167.564 190.45H169.939V193.35H173.764V196.15H169.939V202.725C169.939 203.242 170.089 203.633 170.389 203.9C170.689 204.15 171.081 204.275 171.564 204.275ZM176.129 205.25C176.129 204.483 176.337 203.95 176.754 203.65C177.171 203.333 177.679 203.175 178.279 203.175C178.862 203.175 179.362 203.333 179.779 203.65C180.196 203.95 180.404 204.483 180.404 205.25C180.404 205.983 180.196 206.517 179.779 206.85C179.362 207.167 178.862 207.325 178.279 207.325C177.679 207.325 177.171 207.167 176.754 206.85C176.337 206.517 176.129 205.983 176.129 205.25ZM193.283 207H182.508V204.8L188.833 196.2H182.883V193.35H193.058V195.775L186.908 204.15H193.283V207ZM197.865 188C198.415 188 198.89 188.133 199.29 188.4C199.69 188.65 199.89 189.125 199.89 189.825C199.89 190.508 199.69 190.983 199.29 191.25C198.89 191.517 198.415 191.65 197.865 191.65C197.298 191.65 196.815 191.517 196.415 191.25C196.032 190.983 195.84 190.508 195.84 189.825C195.84 189.125 196.032 188.65 196.415 188.4C196.815 188.133 197.298 188 197.865 188ZM199.715 193.35V207H195.99V193.35H199.715ZM211.207 193.1C212.741 193.1 213.982 193.7 214.932 194.9C215.882 196.083 216.357 197.833 216.357 200.15C216.357 202.467 215.866 204.233 214.882 205.45C213.899 206.65 212.641 207.25 211.107 207.25C210.124 207.25 209.341 207.075 208.757 206.725C208.174 206.358 207.699 205.95 207.332 205.5H207.132C207.266 206.2 207.332 206.867 207.332 207.5V213H203.607V193.35H206.632L207.157 195.125H207.332C207.699 194.575 208.191 194.1 208.807 193.7C209.424 193.3 210.224 193.1 211.207 193.1ZM210.007 196.075C209.041 196.075 208.357 196.375 207.957 196.975C207.574 197.575 207.366 198.492 207.332 199.725V200.125C207.332 201.442 207.524 202.458 207.907 203.175C208.307 203.875 209.024 204.225 210.057 204.225C210.907 204.225 211.532 203.875 211.932 203.175C212.349 202.458 212.557 201.433 212.557 200.1C212.557 197.417 211.707 196.075 210.007 196.075Z" fill="black"/>
<path d="M159.667 154L151 145.333L142.333 154" stroke="black" stroke-width="4" stroke-linecap="round" stroke-linejoin="round"/>
<path d="M151 162.667V145.333" stroke="black" stroke-width="4" stroke-linecap="round" stroke-linejoin="round"/>
<path d="M78.5 54.5073C67.1737 54.5073 58 63.6862 58 75.0073C58 84.0666 63.8732 91.749 72.0169 94.4567C73.0419 94.6497 73.4177 94.0159 73.4177 93.471C73.4177 92.9841 73.4006 91.6943 73.3921 89.986C67.6897 91.2228 66.487 87.2356 66.487 87.2356C65.5543 84.8695 64.2064 84.2374 64.2064 84.2374C62.3494 82.9664 64.3499 82.9921 64.3499 82.9921C66.4084 83.1356 67.4898 85.1036 67.4898 85.1036C69.3177 88.2384 72.2885 87.3329 73.4604 86.8085C73.6449 85.4828 74.1728 84.5791 74.7588 84.0666C70.206 83.5541 65.421 81.7911 65.421 73.9362C65.421 71.6983 66.2154 69.8704 67.5308 68.4354C67.3002 67.9177 66.6083 65.8336 67.7102 63.0097C67.7102 63.0097 69.427 62.4596 73.3477 65.1109C74.9877 64.6548 76.7302 64.4293 78.4727 64.4191C80.2152 64.4293 81.9577 64.6548 83.5977 65.1109C87.4927 62.4596 89.2095 63.0097 89.2095 63.0097C90.3114 65.8336 89.6195 67.9177 89.4145 68.4354C90.7214 69.8704 91.5158 71.6983 91.5158 73.9362C91.5158 81.8116 86.7239 83.5456 82.1627 84.0495C82.8802 84.6645 83.5464 85.9219 83.5464 87.842C83.5464 90.5856 83.5208 92.7894 83.5208 93.4556C83.5208 93.9937 83.8795 94.6344 84.9302 94.4294C93.1319 91.7404 99 84.0529 99 75.0073C99 63.6862 89.8211 54.5073 78.5 54.5073Z" fill="black"/>
<g clip-path="url(#clip0_23_2)">
<path d="M142.272 70.7267C142.272 71.22 142.325 71.6184 142.418 71.91C142.525 72.2034 142.658 72.5234 142.845 72.87C142.912 72.975 142.938 73.0817 142.938 73.175C142.938 73.3084 142.858 73.4417 142.685 73.575L141.847 74.1334C141.745 74.2064 141.625 74.2482 141.5 74.2534C141.367 74.2534 141.233 74.1867 141.102 74.0667C140.923 73.8741 140.762 73.6648 140.623 73.4417C140.474 73.1861 140.336 72.9242 140.21 72.6567C139.173 73.88 137.868 74.4917 136.298 74.4917C135.182 74.4917 134.29 74.1734 133.638 73.535C132.987 72.895 132.655 72.045 132.655 70.98C132.655 69.85 133.053 68.93 133.865 68.24C134.677 67.5484 135.753 67.2017 137.123 67.2017C137.577 67.2017 138.042 67.2417 138.533 67.3084C139.027 67.375 139.533 67.4817 140.063 67.6017V66.63C140.063 65.6184 139.852 64.9134 139.438 64.5017C139.013 64.0884 138.295 63.89 137.272 63.89C136.805 63.89 136.325 63.9417 135.833 64.0617C135.342 64.1817 134.862 64.3284 134.397 64.515C134.245 64.5829 134.089 64.6408 133.93 64.6884C133.861 64.7105 133.79 64.7234 133.718 64.7267C133.532 64.7267 133.438 64.5934 133.438 64.315V63.6634C133.438 63.45 133.465 63.29 133.532 63.1967C133.632 63.0757 133.76 62.9803 133.905 62.9184C134.37 62.6784 134.928 62.4784 135.58 62.3184C136.258 62.1447 136.956 62.0601 137.657 62.0667C139.24 62.0667 140.397 62.4267 141.142 63.145C141.873 63.8617 142.245 64.9534 142.245 66.4167V70.7267H142.272ZM136.872 72.75C137.31 72.75 137.762 72.67 138.242 72.51C138.72 72.35 139.147 72.0584 139.505 71.66C139.718 71.4067 139.878 71.1267 139.958 70.8067C140.037 70.4884 140.092 70.1017 140.092 69.65V69.0917C139.688 68.9933 139.279 68.9176 138.867 68.865C138.452 68.8124 138.035 68.7856 137.617 68.785C136.725 68.785 136.073 68.9584 135.633 69.3184C135.195 69.6767 134.983 70.1817 134.983 70.8467C134.983 71.4717 135.142 71.9384 135.475 72.2567C135.793 72.59 136.258 72.75 136.872 72.75ZM147.555 74.1867C147.315 74.1867 147.155 74.1467 147.048 74.0534C146.942 73.9734 146.848 73.7867 146.768 73.535L143.643 63.25C143.583 63.0776 143.542 62.8986 143.523 62.7167C143.523 62.5034 143.63 62.3834 143.842 62.3834H145.147C145.398 62.3834 145.572 62.425 145.663 62.5167C145.772 62.5967 145.852 62.7834 145.93 63.0367L148.167 71.8434L150.242 63.0367C150.308 62.77 150.388 62.5967 150.493 62.5167C150.653 62.4186 150.839 62.3721 151.027 62.3834H152.09C152.343 62.3834 152.517 62.425 152.623 62.5167C152.728 62.5967 152.823 62.7834 152.875 63.0367L154.977 71.95L157.278 63.0367C157.358 62.77 157.452 62.5967 157.545 62.5167C157.699 62.4187 157.881 62.372 158.063 62.3834H159.302C159.513 62.3834 159.635 62.4917 159.635 62.7167C159.635 62.7834 159.62 62.85 159.607 62.93C159.586 63.0438 159.555 63.1553 159.513 63.2634L156.308 73.5467C156.228 73.8134 156.135 73.985 156.028 74.065C155.878 74.1614 155.701 74.208 155.523 74.1984H154.378C154.127 74.1984 153.953 74.1584 153.845 74.065C153.74 73.9717 153.647 73.7984 153.595 73.5317L151.532 64.9517L149.482 73.5184C149.415 73.785 149.337 73.9584 149.232 74.0517C149.123 74.145 148.937 74.185 148.698 74.185L147.555 74.1867ZM164.648 74.545C163.957 74.545 163.265 74.465 162.6 74.3067C161.935 74.1467 161.417 73.9734 161.07 73.7734C160.857 73.655 160.712 73.5217 160.658 73.4017C160.606 73.2841 160.579 73.157 160.578 73.0284V72.35C160.578 72.0717 160.685 71.9384 160.883 71.9384C160.963 71.9384 161.043 71.9517 161.123 71.9784C161.203 72.005 161.323 72.0584 161.457 72.1117C161.908 72.3117 162.4 72.47 162.92 72.5767C163.452 72.6834 163.97 72.7367 164.503 72.7367C165.34 72.7367 165.993 72.59 166.445 72.2967C166.661 72.1659 166.84 71.9801 166.961 71.7582C167.082 71.5363 167.143 71.2863 167.137 71.0334C167.142 70.8621 167.112 70.6916 167.051 70.5316C166.989 70.3717 166.897 70.2256 166.778 70.1017C166.538 69.85 166.085 69.6234 165.433 69.41L163.505 68.81C162.533 68.505 161.815 68.0534 161.377 67.455C160.948 66.9028 160.713 66.2243 160.71 65.525C160.71 64.9667 160.832 64.475 161.07 64.0484C161.31 63.6234 161.628 63.25 162.028 62.9584C162.428 62.6517 162.878 62.425 163.412 62.2667C163.945 62.1067 164.503 62.04 165.088 62.04C165.38 62.04 165.687 62.0534 165.98 62.0934C166.285 62.1334 166.563 62.1867 166.843 62.24C167.11 62.3067 167.363 62.3734 167.602 62.4517C167.842 62.5317 168.028 62.6117 168.162 62.6917C168.319 62.7708 168.456 62.8848 168.562 63.025C168.648 63.1545 168.689 63.3083 168.68 63.4634V64.0884C168.68 64.3684 168.573 64.515 168.373 64.515C168.196 64.4947 168.025 64.4404 167.868 64.355C167.065 64 166.194 63.8232 165.315 63.8367C164.557 63.8367 163.957 63.955 163.545 64.2084C163.132 64.4617 162.92 64.8467 162.92 65.3917C162.92 65.765 163.053 66.085 163.32 66.3367C163.585 66.59 164.077 66.8434 164.782 67.07L166.672 67.6667C167.628 67.9734 168.322 68.4 168.733 68.945C169.145 69.49 169.345 70.115 169.345 70.8067C169.345 71.3784 169.225 71.8984 169 72.35C168.76 72.8034 168.44 73.2017 168.028 73.5217C167.615 73.855 167.123 74.0934 166.552 74.2667C165.952 74.4517 165.328 74.545 164.648 74.545ZM167.163 81.0117C162.787 84.245 156.427 85.96 150.96 85.96C143.297 85.96 136.393 83.1267 131.177 78.4167C130.765 78.045 131.137 77.5384 131.63 77.8317C137.27 81.1034 144.228 83.0867 151.425 83.0867C156.282 83.0867 161.615 82.075 166.525 80C167.257 79.6667 167.882 80.4784 167.163 81.0117ZM168.987 78.935C168.427 78.2184 165.287 78.59 163.863 78.7634C163.438 78.8167 163.372 78.4434 163.758 78.1634C166.258 76.4084 170.37 76.9134 170.848 77.4984C171.327 78.0984 170.715 82.2084 168.373 84.1767C168.015 84.4834 167.668 84.3234 167.828 83.925C168.362 82.6084 169.545 79.6417 168.987 78.935Z" fill="black"/>
</g>
<path d="M223.825 58.0658C220.257 57.9831 216.765 59.098 213.906 61.2325C211.047 63.3669 208.985 66.3979 208.05 69.8414C208.14 69.8072 207.956 69.8636 208.05 69.8414C201.43 74.1993 201.35 83.6959 207.628 88.5322L207.638 88.5203L207.626 88.5715C209.631 90.0854 212.078 90.8992 214.591 90.888H223.428L223.479 90.9393H232.349C243.773 91.0298 248.366 76.2391 238.901 69.8414C238.085 66.8354 236.41 64.1328 234.081 62.065L234.008 62.1385L234.018 62.0531C231.196 59.5641 227.586 58.152 223.825 58.0658ZM223.213 65.1486C225.338 65.0802 227.515 65.7772 229.168 67.1131C230.186 67.9625 231 69.0293 231.55 70.235C232.101 71.4407 232.374 72.7545 232.349 74.0797V74.9646C238.38 74.8451 238.38 83.9539 232.349 83.836H223.478L223.464 83.8514V83.7831H214.591C213.962 83.7831 213.341 83.6491 212.768 83.3901H212.77C212.116 83.0942 211.544 82.6442 211.103 82.0788C210.661 81.5133 210.364 80.8492 210.235 80.1434C210.107 79.4376 210.151 78.7111 210.365 78.0263C210.579 77.3415 210.956 76.7188 211.463 76.2115C211.97 75.7042 212.593 75.3275 213.278 75.1137C213.962 74.8999 214.689 74.8553 215.395 74.9838C216.1 75.1124 216.765 75.4101 217.33 75.8516C217.896 76.2931 218.346 76.8651 218.641 77.5186L223.789 72.3731C222.078 70.1436 219.612 68.6157 216.855 68.0766C216.885 68.0596 216.923 68.0322 216.947 68.0374C217.745 67.1611 218.712 66.454 219.789 65.9581C220.866 65.4622 222.031 65.1875 223.216 65.1503L223.213 65.1486Z" fill="black"/>
<defs>
<filter id="filter0_d_23_2" x="0" y="0" width="310" height="274" filterUnits="userSpaceOnUse" color-interpolation-filters="sRGB">
<feFlood flood-opacity="0" result="BackgroundImageFix"/>
<feColorMatrix in="SourceAlpha" type="matrix" values="0 0 0 0 0 0 0 0 0 0 0 0 0 0 0 0 0 0 127 0" result="hardAlpha"/>
<feOffset dy="2"/>
<feGaussianBlur stdDeviation="10"/>
<feComposite in2="hardAlpha" operator="out"/>
<feColorMatrix type="matrix" values="0 0 0 0 0 0 0 0 0 0 0 0 0 0 0 0 0 0 0.4 0"/>
<feBlend mode="normal" in2="BackgroundImageFix" result="effect1_dropShadow_23_2"/>
<feBlend mode="normal" in="SourceGraphic" in2="effect1_dropShadow_23_2" result="shape"/>
</filter>
<clipPath id="clip0_23_2">
<rect width="40" height="40" fill="white" transform="translate(131 54)"/>
</clipPath>
</defs>
</svg>
