<svg width="128" height="34" viewBox="0 0 128 34" fill="none" xmlns="http://www.w3.org/2000/svg">
<path d="M20.24 17.24C21.3658 16.1141 21.9983 14.5872 21.9983 12.995C21.9983 11.4028 21.3658 9.87582 20.24 8.74997C19.1142 7.62413 17.5872 6.99164 15.995 6.99164C14.4028 6.99164 12.8758 7.62413 11.75 8.74997L5 15.5V24H13.5L20.24 17.24Z" stroke="white" stroke-width="1.66667" stroke-linecap="round" stroke-linejoin="round"/>
<path d="M16 13L2 27" stroke="white" stroke-width="1.66667" stroke-linecap="round" stroke-linejoin="round"/>
<path d="M17.5 20H9" stroke="white" stroke-width="1.66667" stroke-linecap="round" stroke-linejoin="round"/>
<path d="M40.025 16.975H47.1V26.225C46.1667 26.5417 45.1917 26.7917 44.175 26.975C43.175 27.1583 42.0333 27.25 40.75 27.25C38.0833 27.25 36.0333 26.4667 34.6 24.9C33.1667 23.3333 32.45 21.05 32.45 18.05C32.45 16.1833 32.8083 14.5667 33.525 13.2C34.2583 11.8333 35.3167 10.775 36.7 10.025C38.0833 9.275 39.775 8.9 41.775 8.9C42.725 8.9 43.6583 9 44.575 9.2C45.4917 9.4 46.325 9.66667 47.075 10L45.825 13.025C45.275 12.7417 44.65 12.5083 43.95 12.325C43.25 12.1417 42.5167 12.05 41.75 12.05C40.65 12.05 39.6917 12.3 38.875 12.8C38.075 13.3 37.45 14.0083 37 14.925C36.5667 15.825 36.35 16.8917 36.35 18.125C36.35 19.2917 36.5083 20.325 36.825 21.225C37.1417 22.125 37.6417 22.8333 38.325 23.35C39.0083 23.85 39.9 24.1 41 24.1C41.5333 24.1 41.9833 24.075 42.35 24.025C42.7333 23.975 43.0833 23.9167 43.4 23.85V20.125H40.025V16.975ZM58.6658 13.1C58.8492 13.1 59.0658 13.1083 59.3158 13.125C59.5658 13.1417 59.7658 13.1667 59.9158 13.2L59.6408 16.7C59.5242 16.6667 59.3492 16.6417 59.1158 16.625C58.8992 16.5917 58.7075 16.575 58.5408 16.575C57.9075 16.575 57.2992 16.6917 56.7158 16.925C56.1325 17.1417 55.6575 17.5 55.2908 18C54.9408 18.5 54.7658 19.1833 54.7658 20.05V27H51.0408V13.35H53.8658L54.4158 15.65H54.5908C54.9908 14.95 55.5408 14.35 56.2408 13.85C56.9408 13.35 57.7492 13.1 58.6658 13.1ZM67.5301 13.1C69.4134 13.1 70.9051 13.6417 72.0051 14.725C73.1051 15.7917 73.6551 17.3167 73.6551 19.3V21.1H64.8551C64.8884 22.15 65.1967 22.975 65.7801 23.575C66.3801 24.175 67.2051 24.475 68.2551 24.475C69.1384 24.475 69.9384 24.3917 70.6551 24.225C71.3717 24.0417 72.1134 23.7667 72.8801 23.4V26.275C72.2134 26.6083 71.5051 26.85 70.7551 27C70.0217 27.1667 69.1301 27.25 68.0801 27.25C66.7134 27.25 65.5051 27 64.4551 26.5C63.4051 25.9833 62.5801 25.2083 61.9801 24.175C61.3801 23.1417 61.0801 21.8417 61.0801 20.275C61.0801 18.675 61.3467 17.35 61.8801 16.3C62.4301 15.2333 63.1884 14.4333 64.1551 13.9C65.1217 13.3667 66.2467 13.1 67.5301 13.1ZM67.5551 15.75C66.8384 15.75 66.2384 15.9833 65.7551 16.45C65.2884 16.9167 65.0134 17.6417 64.9301 18.625H70.1551C70.1384 17.7917 69.9217 17.1083 69.5051 16.575C69.0884 16.025 68.4384 15.75 67.5551 15.75ZM82.3006 13.1C84.1839 13.1 85.6756 13.6417 86.7756 14.725C87.8756 15.7917 88.4256 17.3167 88.4256 19.3V21.1H79.6256C79.6589 22.15 79.9673 22.975 80.5506 23.575C81.1506 24.175 81.9756 24.475 83.0256 24.475C83.9089 24.475 84.7089 24.3917 85.4256 24.225C86.1423 24.0417 86.8839 23.7667 87.6506 23.4V26.275C86.9839 26.6083 86.2756 26.85 85.5256 27C84.7923 27.1667 83.9006 27.25 82.8506 27.25C81.4839 27.25 80.2756 27 79.2256 26.5C78.1756 25.9833 77.3506 25.2083 76.7506 24.175C76.1506 23.1417 75.8506 21.8417 75.8506 20.275C75.8506 18.675 76.1173 17.35 76.6506 16.3C77.2006 15.2333 77.9589 14.4333 78.9256 13.9C79.8923 13.3667 81.0173 13.1 82.3006 13.1ZM82.3256 15.75C81.6089 15.75 81.0089 15.9833 80.5256 16.45C80.0589 16.9167 79.7839 17.6417 79.7006 18.625H84.9256C84.9089 17.7917 84.6923 17.1083 84.2756 16.575C83.8589 16.025 83.2089 15.75 82.3256 15.75ZM99.1961 13.1C100.663 13.1 101.838 13.5 102.721 14.3C103.604 15.0833 104.046 16.35 104.046 18.1V27H100.321V19.025C100.321 18.0417 100.146 17.3083 99.7961 16.825C99.4461 16.325 98.8878 16.075 98.1211 16.075C96.9878 16.075 96.2128 16.4667 95.7961 17.25C95.3794 18.0167 95.1711 19.125 95.1711 20.575V27H91.4461V13.35H94.2961L94.7961 15.1H94.9961C95.4294 14.4 96.0211 13.8917 96.7711 13.575C97.5378 13.2583 98.3461 13.1 99.1961 13.1ZM106.302 32.25C105.818 32.25 105.393 32.2167 105.027 32.15C104.66 32.1 104.343 32.0417 104.077 31.975V28.825C104.343 28.8917 104.627 28.95 104.927 29C105.21 29.05 105.518 29.075 105.852 29.075C106.285 29.075 106.677 28.9917 107.027 28.825C107.393 28.6583 107.677 28.3417 107.877 27.875C108.077 27.4083 108.177 26.7417 108.177 25.875V9.15H111.952V25.85C111.952 27.3833 111.71 28.6167 111.227 29.55C110.76 30.5 110.102 31.1833 109.252 31.6C108.402 32.0333 107.418 32.25 106.302 32.25ZM126.978 22.05C126.978 23.6333 126.403 24.9 125.253 25.85C124.12 26.7833 122.503 27.25 120.403 27.25C118.52 27.25 116.836 26.8917 115.353 26.175V22.65C116.203 23.0167 117.078 23.3583 117.978 23.675C118.895 23.975 119.803 24.125 120.703 24.125C121.636 24.125 122.295 23.95 122.678 23.6C123.078 23.2333 123.278 22.775 123.278 22.225C123.278 21.775 123.12 21.3917 122.803 21.075C122.503 20.7583 122.095 20.4667 121.578 20.2C121.061 19.9167 120.47 19.6167 119.803 19.3C119.386 19.1 118.936 18.8667 118.453 18.6C117.97 18.3167 117.503 17.975 117.053 17.575C116.62 17.1583 116.261 16.6583 115.978 16.075C115.695 15.4917 115.553 14.7917 115.553 13.975C115.553 12.375 116.095 11.1333 117.178 10.25C118.261 9.35 119.736 8.9 121.603 8.9C122.536 8.9 123.42 9.00833 124.253 9.225C125.103 9.44167 125.986 9.75 126.903 10.15L125.678 13.1C124.861 12.7667 124.128 12.5083 123.478 12.325C122.828 12.1417 122.161 12.05 121.478 12.05C120.761 12.05 120.211 12.2167 119.828 12.55C119.445 12.8833 119.253 13.3167 119.253 13.85C119.253 14.4833 119.536 14.9833 120.103 15.35C120.67 15.7167 121.511 16.1667 122.628 16.7C123.545 17.1333 124.32 17.5833 124.953 18.05C125.603 18.5167 126.103 19.0667 126.453 19.7C126.803 20.3333 126.978 21.1167 126.978 22.05Z" fill="white"/>
</svg>
