<svg width="352" height="224" viewBox="0 0 352 224" fill="none" xmlns="http://www.w3.org/2000/svg">
<g filter="url(#filter0_d_26_83)">
<rect x="21" y="21" width="310" height="182" rx="12" fill="white" stroke="#CFCFCF" stroke-width="2"/>
<path d="M45.0114 53V41.3636H49.6023C50.4848 41.3636 51.2367 41.5322 51.858 41.8693C52.4792 42.2027 52.9527 42.6667 53.2784 43.2614C53.608 43.8523 53.7727 44.5341 53.7727 45.3068C53.7727 46.0795 53.6061 46.7614 53.2727 47.3523C52.9394 47.9432 52.4564 48.4034 51.8239 48.733C51.1951 49.0625 50.4337 49.2273 49.5398 49.2273H46.6136V47.2557H49.142C49.6155 47.2557 50.0057 47.1742 50.3125 47.0114C50.6231 46.8447 50.8542 46.6155 51.0057 46.3239C51.161 46.0284 51.2386 45.6894 51.2386 45.3068C51.2386 44.9205 51.161 44.5833 51.0057 44.2955C50.8542 44.0038 50.6231 43.7784 50.3125 43.6193C50.0019 43.4564 49.608 43.375 49.1307 43.375H47.4716V53H45.0114ZM55.3253 53V44.2727H57.6719V45.7955H57.7628C57.9219 45.2538 58.1889 44.8447 58.5639 44.5682C58.9389 44.2879 59.3707 44.1477 59.8594 44.1477C59.9806 44.1477 60.1113 44.1553 60.2514 44.1705C60.3916 44.1856 60.5147 44.2064 60.6207 44.233V46.3807C60.5071 46.3466 60.3499 46.3163 60.1491 46.2898C59.9484 46.2633 59.7647 46.25 59.598 46.25C59.242 46.25 58.9238 46.3277 58.6435 46.483C58.367 46.6345 58.1473 46.8466 57.9844 47.1193C57.8253 47.392 57.7457 47.7064 57.7457 48.0625V53H55.3253ZM65.4432 53.1705C64.5455 53.1705 63.7727 52.9886 63.125 52.625C62.4811 52.2576 61.9848 51.7386 61.6364 51.0682C61.2879 50.3939 61.1136 49.5966 61.1136 48.6761C61.1136 47.7784 61.2879 46.9905 61.6364 46.3125C61.9848 45.6345 62.4754 45.1061 63.108 44.7273C63.7443 44.3485 64.4905 44.1591 65.3466 44.1591C65.9223 44.1591 66.4583 44.2519 66.9545 44.4375C67.4545 44.6193 67.8902 44.8939 68.2614 45.2614C68.6364 45.6288 68.928 46.0909 69.1364 46.6477C69.3447 47.2008 69.4489 47.8485 69.4489 48.5909V49.2557H62.0795V47.7557H67.1705C67.1705 47.4072 67.0947 47.0985 66.9432 46.8295C66.7917 46.5606 66.5814 46.3504 66.3125 46.1989C66.0473 46.0436 65.7386 45.9659 65.3864 45.9659C65.0189 45.9659 64.6932 46.0511 64.4091 46.2216C64.1288 46.3883 63.9091 46.6136 63.75 46.8977C63.5909 47.178 63.5095 47.4905 63.5057 47.8352V49.2614C63.5057 49.6932 63.5852 50.0663 63.7443 50.3807C63.9072 50.6951 64.1364 50.9375 64.4318 51.108C64.7273 51.2784 65.0777 51.3636 65.483 51.3636C65.7519 51.3636 65.9981 51.3258 66.2216 51.25C66.4451 51.1742 66.6364 51.0606 66.7955 50.9091C66.9545 50.7576 67.0758 50.572 67.1591 50.3523L69.3977 50.5C69.2841 51.0379 69.0511 51.5076 68.6989 51.9091C68.3504 52.3068 67.8996 52.6174 67.3466 52.8409C66.7973 53.0606 66.1629 53.1705 65.4432 53.1705ZM76.4659 47.2614V49.1818H71.1591V47.2614H76.4659ZM78.5284 53V44.2727H80.875V45.7955H80.9659C81.125 45.2538 81.392 44.8447 81.767 44.5682C82.142 44.2879 82.5739 44.1477 83.0625 44.1477C83.1837 44.1477 83.3144 44.1553 83.4545 44.1705C83.5947 44.1856 83.7178 44.2064 83.8239 44.233V46.3807C83.7102 46.3466 83.553 46.3163 83.3523 46.2898C83.1515 46.2633 82.9678 46.25 82.8011 46.25C82.4451 46.25 82.1269 46.3277 81.8466 46.483C81.5701 46.6345 81.3504 46.8466 81.1875 47.1193C81.0284 47.392 80.9489 47.7064 80.9489 48.0625V53H78.5284ZM88.6463 53.1705C87.7486 53.1705 86.9759 52.9886 86.3281 52.625C85.6842 52.2576 85.188 51.7386 84.8395 51.0682C84.491 50.3939 84.3168 49.5966 84.3168 48.6761C84.3168 47.7784 84.491 46.9905 84.8395 46.3125C85.188 45.6345 85.6785 45.1061 86.3111 44.7273C86.9474 44.3485 87.6937 44.1591 88.5497 44.1591C89.1255 44.1591 89.6615 44.2519 90.1577 44.4375C90.6577 44.6193 91.0933 44.8939 91.4645 45.2614C91.8395 45.6288 92.1312 46.0909 92.3395 46.6477C92.5478 47.2008 92.652 47.8485 92.652 48.5909V49.2557H85.2827V47.7557H90.3736C90.3736 47.4072 90.2978 47.0985 90.1463 46.8295C89.9948 46.5606 89.7846 46.3504 89.5156 46.1989C89.2505 46.0436 88.9418 45.9659 88.5895 45.9659C88.2221 45.9659 87.8963 46.0511 87.6122 46.2216C87.3319 46.3883 87.1122 46.6136 86.9531 46.8977C86.794 47.178 86.7126 47.4905 86.7088 47.8352V49.2614C86.7088 49.6932 86.7884 50.0663 86.9474 50.3807C87.1103 50.6951 87.3395 50.9375 87.6349 51.108C87.9304 51.2784 88.2808 51.3636 88.6861 51.3636C88.955 51.3636 89.2012 51.3258 89.4247 51.25C89.6482 51.1742 89.8395 51.0606 89.9986 50.9091C90.1577 50.7576 90.2789 50.572 90.3622 50.3523L92.6009 50.5C92.4872 51.0379 92.2543 51.5076 91.902 51.9091C91.5535 52.3068 91.1027 52.6174 90.5497 52.8409C90.0005 53.0606 89.366 53.1705 88.6463 53.1705ZM96.652 47.9545V53H94.2315V44.2727H96.5384V45.8125H96.6406C96.8338 45.3049 97.1577 44.9034 97.6122 44.608C98.0668 44.3087 98.6179 44.1591 99.2656 44.1591C99.8717 44.1591 100.4 44.2917 100.851 44.5568C101.302 44.822 101.652 45.2008 101.902 45.6932C102.152 46.1818 102.277 46.7652 102.277 47.4432V53H99.8565V47.875C99.8603 47.3409 99.724 46.9242 99.4474 46.625C99.1709 46.322 98.7902 46.1705 98.3054 46.1705C97.9796 46.1705 97.6918 46.2405 97.4418 46.3807C97.1955 46.5208 97.0024 46.7254 96.8622 46.9943C96.7259 47.2595 96.6558 47.5795 96.652 47.9545ZM107.401 53.142C106.738 53.142 106.137 52.9716 105.599 52.6307C105.065 52.286 104.641 51.7803 104.327 51.1136C104.016 50.4432 103.861 49.6212 103.861 48.6477C103.861 47.6477 104.022 46.8163 104.344 46.1534C104.666 45.4867 105.094 44.9886 105.628 44.6591C106.166 44.3258 106.755 44.1591 107.395 44.1591C107.884 44.1591 108.291 44.2424 108.616 44.4091C108.946 44.572 109.211 44.7765 109.412 45.0227C109.616 45.2652 109.772 45.5038 109.878 45.7386H109.952V41.3636H112.366V53H109.98V51.6023H109.878C109.764 51.8447 109.603 52.0852 109.395 52.3239C109.19 52.5587 108.923 52.7538 108.594 52.9091C108.268 53.0644 107.87 53.142 107.401 53.142ZM108.168 51.2159C108.558 51.2159 108.887 51.1098 109.156 50.8977C109.429 50.6818 109.637 50.3807 109.781 49.9943C109.929 49.608 110.003 49.1553 110.003 48.6364C110.003 48.1174 109.931 47.6667 109.787 47.2841C109.643 46.9015 109.435 46.6061 109.162 46.3977C108.889 46.1894 108.558 46.0852 108.168 46.0852C107.77 46.0852 107.435 46.1932 107.162 46.4091C106.889 46.625 106.683 46.9242 106.543 47.3068C106.402 47.6894 106.332 48.1326 106.332 48.6364C106.332 49.1439 106.402 49.5928 106.543 49.983C106.687 50.3693 106.893 50.6723 107.162 50.892C107.435 51.108 107.77 51.2159 108.168 51.2159ZM118.334 53.1705C117.436 53.1705 116.663 52.9886 116.016 52.625C115.372 52.2576 114.875 51.7386 114.527 51.0682C114.179 50.3939 114.004 49.5966 114.004 48.6761C114.004 47.7784 114.179 46.9905 114.527 46.3125C114.875 45.6345 115.366 45.1061 115.999 44.7273C116.635 44.3485 117.381 44.1591 118.237 44.1591C118.813 44.1591 119.349 44.2519 119.845 44.4375C120.345 44.6193 120.781 44.8939 121.152 45.2614C121.527 45.6288 121.819 46.0909 122.027 46.6477C122.235 47.2008 122.339 47.8485 122.339 48.5909V49.2557H114.97V47.7557H120.061C120.061 47.4072 119.985 47.0985 119.834 46.8295C119.682 46.5606 119.472 46.3504 119.203 46.1989C118.938 46.0436 118.629 45.9659 118.277 45.9659C117.91 45.9659 117.584 46.0511 117.3 46.2216C117.019 46.3883 116.8 46.6136 116.641 46.8977C116.482 47.178 116.4 47.4905 116.396 47.8352V49.2614C116.396 49.6932 116.476 50.0663 116.635 50.3807C116.798 50.6951 117.027 50.9375 117.322 51.108C117.618 51.2784 117.968 51.3636 118.374 51.3636C118.643 51.3636 118.889 51.3258 119.112 51.25C119.336 51.1742 119.527 51.0606 119.686 50.9091C119.845 50.7576 119.966 50.572 120.05 50.3523L122.288 50.5C122.175 51.0379 121.942 51.5076 121.589 51.9091C121.241 52.3068 120.79 52.6174 120.237 52.8409C119.688 53.0606 119.054 53.1705 118.334 53.1705ZM123.919 53V44.2727H126.266V45.7955H126.357C126.516 45.2538 126.783 44.8447 127.158 44.5682C127.533 44.2879 127.964 44.1477 128.453 44.1477C128.574 44.1477 128.705 44.1553 128.845 44.1705C128.985 44.1856 129.108 44.2064 129.214 44.233V46.3807C129.101 46.3466 128.944 46.3163 128.743 46.2898C128.542 46.2633 128.358 46.25 128.192 46.25C127.836 46.25 127.518 46.3277 127.237 46.483C126.961 46.6345 126.741 46.8466 126.578 47.1193C126.419 47.392 126.339 47.7064 126.339 48.0625V53H123.919ZM130.466 53V44.2727H132.886V53H130.466ZM131.682 43.1477C131.322 43.1477 131.013 43.0284 130.756 42.7898C130.502 42.5473 130.375 42.2576 130.375 41.9205C130.375 41.5871 130.502 41.3011 130.756 41.0625C131.013 40.8201 131.322 40.6989 131.682 40.6989C132.042 40.6989 132.348 40.8201 132.602 41.0625C132.86 41.3011 132.989 41.5871 132.989 41.9205C132.989 42.2576 132.86 42.5473 132.602 42.7898C132.348 43.0284 132.042 43.1477 131.682 43.1477ZM137.246 47.9545V53H134.825V44.2727H137.132V45.8125H137.234C137.428 45.3049 137.751 44.9034 138.206 44.608C138.661 44.3087 139.212 44.1591 139.859 44.1591C140.465 44.1591 140.994 44.2917 141.445 44.5568C141.895 44.822 142.246 45.2008 142.496 45.6932C142.746 46.1818 142.871 46.7652 142.871 47.4432V53H140.45V47.875C140.454 47.3409 140.318 46.9242 140.041 46.625C139.765 46.322 139.384 46.1705 138.899 46.1705C138.573 46.1705 138.286 46.2405 138.036 46.3807C137.789 46.5208 137.596 46.7254 137.456 46.9943C137.32 47.2595 137.25 47.5795 137.246 47.9545ZM148.71 56.4545C147.926 56.4545 147.254 56.3466 146.693 56.1307C146.136 55.9186 145.693 55.6288 145.364 55.2614C145.034 54.8939 144.82 54.4811 144.722 54.0227L146.96 53.7216C147.028 53.8958 147.136 54.0587 147.284 54.2102C147.432 54.3617 147.627 54.483 147.869 54.5739C148.116 54.6686 148.415 54.7159 148.767 54.7159C149.294 54.7159 149.727 54.5871 150.068 54.3295C150.413 54.0758 150.585 53.6496 150.585 53.0511V51.4545H150.483C150.377 51.697 150.218 51.9261 150.006 52.142C149.794 52.358 149.521 52.5341 149.188 52.6705C148.854 52.8068 148.456 52.875 147.994 52.875C147.339 52.875 146.742 52.7235 146.205 52.4205C145.67 52.1136 145.244 51.6458 144.926 51.017C144.612 50.3845 144.455 49.5852 144.455 48.6193C144.455 47.6307 144.616 46.8049 144.938 46.142C145.259 45.4792 145.688 44.983 146.222 44.6534C146.759 44.3239 147.348 44.1591 147.989 44.1591C148.477 44.1591 148.886 44.2424 149.216 44.4091C149.545 44.572 149.811 44.7765 150.011 45.0227C150.216 45.2652 150.373 45.5038 150.483 45.7386H150.574V44.2727H152.977V53.0852C152.977 53.8277 152.795 54.4489 152.432 54.9489C152.068 55.4489 151.564 55.8239 150.92 56.0739C150.28 56.3277 149.544 56.4545 148.71 56.4545ZM148.761 51.0568C149.152 51.0568 149.481 50.9602 149.75 50.767C150.023 50.5701 150.231 50.2898 150.375 49.9261C150.523 49.5587 150.597 49.1193 150.597 48.608C150.597 48.0966 150.525 47.6534 150.381 47.2784C150.237 46.8996 150.028 46.6061 149.756 46.3977C149.483 46.1894 149.152 46.0852 148.761 46.0852C148.364 46.0852 148.028 46.1932 147.756 46.4091C147.483 46.6212 147.277 46.9167 147.136 47.2955C146.996 47.6742 146.926 48.1117 146.926 48.608C146.926 49.1117 146.996 49.5473 147.136 49.9148C147.28 50.2784 147.487 50.5606 147.756 50.7614C148.028 50.9583 148.364 51.0568 148.761 51.0568Z" fill="black"/>
<rect x="174" y="123" width="130" height="22" rx="3" fill="#E4E4E4"/>
<rect x="174" y="123" width="106" height="22" rx="3" fill="#1038C7"/>
<rect x="174" y="152" width="130" height="22" rx="3" fill="#E4E4E4"/>
<rect x="174" y="152" width="130" height="22" rx="3" fill="#1038C7"/>
<rect x="174" y="94" width="130" height="22" rx="3" fill="#E4E4E4"/>
<rect x="174" y="94" width="106" height="22" rx="3" fill="#1038C7"/>
<path d="M47.1186 110V99.8182H50.8473C51.5698 99.8182 52.1681 99.9375 52.642 100.176C53.116 100.411 53.4706 100.731 53.706 101.136C53.9413 101.537 54.0589 101.989 54.0589 102.493C54.0589 102.917 53.9811 103.275 53.8253 103.567C53.6695 103.855 53.4607 104.087 53.1989 104.263C52.9403 104.435 52.6553 104.561 52.3438 104.641V104.74C52.6818 104.757 53.0116 104.866 53.3331 105.068C53.6579 105.267 53.9264 105.55 54.1385 105.918C54.3506 106.286 54.4567 106.734 54.4567 107.261C54.4567 107.781 54.334 108.248 54.0888 108.663C53.8468 109.074 53.4723 109.4 52.9652 109.642C52.4581 109.881 51.8101 110 51.0213 110H47.1186ZM48.6548 108.683H50.8722C51.608 108.683 52.1349 108.54 52.4531 108.255C52.7713 107.97 52.9304 107.614 52.9304 107.186C52.9304 106.865 52.8492 106.57 52.6868 106.301C52.5244 106.033 52.2924 105.819 51.9908 105.66C51.6925 105.501 51.3378 105.421 50.9268 105.421H48.6548V108.683ZM48.6548 104.223H50.7131C51.0578 104.223 51.3677 104.157 51.6428 104.024C51.9212 103.892 52.1416 103.706 52.304 103.467C52.4697 103.225 52.5526 102.94 52.5526 102.612C52.5526 102.191 52.4051 101.838 52.1101 101.553C51.8151 101.268 51.3627 101.126 50.7528 101.126H48.6548V104.223ZM60.9968 106.833V102.364H62.4883V110H61.0266V108.678H60.9471C60.7714 109.085 60.4897 109.425 60.1019 109.697C59.7174 109.965 59.2385 110.099 58.6651 110.099C58.1746 110.099 57.7404 109.992 57.3626 109.776C56.988 109.558 56.6931 109.234 56.4776 108.807C56.2655 108.379 56.1594 107.851 56.1594 107.221V102.364H57.646V107.042C57.646 107.562 57.7901 107.977 58.0785 108.285C58.3668 108.593 58.7414 108.747 59.2021 108.747C59.4805 108.747 59.7572 108.678 60.0323 108.538C60.3107 108.399 60.5411 108.189 60.7234 107.907C60.909 107.625 61.0001 107.267 60.9968 106.833ZM64.4856 110V102.364H65.9721V110H64.4856ZM65.2363 101.185C64.9778 101.185 64.7557 101.099 64.5701 100.927C64.3878 100.751 64.2967 100.542 64.2967 100.3C64.2967 100.055 64.3878 99.8464 64.5701 99.674C64.7557 99.4983 64.9778 99.4105 65.2363 99.4105C65.4949 99.4105 65.7153 99.4983 65.8975 99.674C66.0832 99.8464 66.176 100.055 66.176 100.3C66.176 100.542 66.0832 100.751 65.8975 100.927C65.7153 101.099 65.4949 101.185 65.2363 101.185ZM69.4585 99.8182V110H67.9719V99.8182H69.4585ZM74.3169 110.149C73.7005 110.149 73.1503 109.992 72.6664 109.677C72.1858 109.359 71.8079 108.906 71.5328 108.32C71.2611 107.73 71.1252 107.022 71.1252 106.197C71.1252 105.371 71.2627 104.665 71.5378 104.079C71.8162 103.492 72.1974 103.043 72.6813 102.732C73.1652 102.42 73.7137 102.264 74.3269 102.264C74.8008 102.264 75.182 102.344 75.4703 102.503C75.762 102.659 75.9874 102.841 76.1465 103.05C76.3089 103.259 76.4348 103.442 76.5243 103.602H76.6138V99.8182H78.1003V110H76.6486V108.812H76.5243C76.4348 108.974 76.3056 109.16 76.1365 109.369C75.9708 109.577 75.7421 109.76 75.4505 109.915C75.1588 110.071 74.781 110.149 74.3169 110.149ZM74.6451 108.881C75.0726 108.881 75.4339 108.769 75.7289 108.543C76.0272 108.315 76.2525 107.998 76.405 107.594C76.5608 107.189 76.6387 106.719 76.6387 106.182C76.6387 105.652 76.5624 105.187 76.41 104.79C76.2575 104.392 76.0338 104.082 75.7388 103.86C75.4438 103.638 75.0792 103.527 74.6451 103.527C74.1976 103.527 73.8248 103.643 73.5265 103.875C73.2282 104.107 73.0028 104.424 72.8503 104.825C72.7012 105.226 72.6266 105.678 72.6266 106.182C72.6266 106.692 72.7028 107.151 72.8553 107.559C73.0078 107.967 73.2331 108.29 73.5314 108.528C73.833 108.764 74.2042 108.881 74.6451 108.881ZM89.6493 104.228L88.302 104.467C88.2457 104.294 88.1562 104.13 88.0336 103.974C87.9142 103.819 87.7518 103.691 87.5463 103.592C87.3409 103.492 87.084 103.442 86.7757 103.442C86.3548 103.442 86.0035 103.537 85.7218 103.726C85.44 103.911 85.2992 104.152 85.2992 104.447C85.2992 104.702 85.3936 104.907 85.5826 105.063C85.7715 105.219 86.0764 105.347 86.4973 105.446L87.7104 105.724C88.4131 105.887 88.9367 106.137 89.2814 106.475C89.6261 106.813 89.7985 107.252 89.7985 107.793C89.7985 108.25 89.6659 108.658 89.4007 109.016C89.1389 109.37 88.7727 109.649 88.302 109.851C87.8347 110.053 87.2928 110.154 86.6763 110.154C85.8212 110.154 85.1235 109.972 84.5833 109.607C84.043 109.239 83.7116 108.717 83.589 108.041L85.0257 107.822C85.1152 108.197 85.2992 108.48 85.5776 108.673C85.856 108.862 86.2189 108.956 86.6664 108.956C87.1536 108.956 87.543 108.855 87.8347 108.653C88.1264 108.447 88.2722 108.197 88.2722 107.902C88.2722 107.663 88.1827 107.463 88.0037 107.3C87.8281 107.138 87.5579 107.015 87.1934 106.933L85.9007 106.649C85.1882 106.487 84.6612 106.228 84.3198 105.874C83.9817 105.519 83.8127 105.07 83.8127 104.526C83.8127 104.076 83.9386 103.681 84.1905 103.343C84.4424 103.005 84.7904 102.741 85.2346 102.553C85.6787 102.36 86.1874 102.264 86.7608 102.264C87.5861 102.264 88.2357 102.443 88.7097 102.801C89.1837 103.156 89.4969 103.631 89.6493 104.228ZM91.4329 112.864V102.364H92.8846V103.602H93.0089C93.0951 103.442 93.2193 103.259 93.3817 103.05C93.5442 102.841 93.7695 102.659 94.0579 102.503C94.3462 102.344 94.7274 102.264 95.2013 102.264C95.8178 102.264 96.368 102.42 96.8519 102.732C97.3358 103.043 97.7153 103.492 97.9904 104.079C98.2688 104.665 98.408 105.371 98.408 106.197C98.408 107.022 98.2705 107.73 97.9954 108.32C97.7203 108.906 97.3424 109.359 96.8619 109.677C96.3813 109.992 95.8327 110.149 95.2163 110.149C94.7522 110.149 94.3728 110.071 94.0778 109.915C93.7861 109.76 93.5574 109.577 93.3917 109.369C93.226 109.16 93.0984 108.974 93.0089 108.812H92.9194V112.864H91.4329ZM92.8896 106.182C92.8896 106.719 92.9674 107.189 93.1232 107.594C93.279 107.998 93.5044 108.315 93.7994 108.543C94.0943 108.769 94.4556 108.881 94.8832 108.881C95.3273 108.881 95.6985 108.764 95.9968 108.528C96.2951 108.29 96.5205 107.967 96.6729 107.559C96.8287 107.151 96.9066 106.692 96.9066 106.182C96.9066 105.678 96.8304 105.226 96.6779 104.825C96.5288 104.424 96.3034 104.107 96.0018 103.875C95.7035 103.643 95.3306 103.527 94.8832 103.527C94.4523 103.527 94.0877 103.638 93.7894 103.86C93.4944 104.082 93.2707 104.392 93.1183 104.79C92.9658 105.187 92.8896 105.652 92.8896 106.182ZM103.365 110.154C102.612 110.154 101.964 109.993 101.421 109.672C100.881 109.347 100.463 108.891 100.168 108.305C99.8763 107.715 99.7305 107.024 99.7305 106.232C99.7305 105.449 99.8763 104.76 100.168 104.163C100.463 103.567 100.874 103.101 101.401 102.766C101.931 102.432 102.551 102.264 103.26 102.264C103.691 102.264 104.109 102.335 104.513 102.478C104.917 102.621 105.28 102.844 105.602 103.149C105.923 103.454 106.177 103.85 106.363 104.337C106.548 104.821 106.641 105.41 106.641 106.102V106.629H100.571V105.516H105.184C105.184 105.125 105.105 104.778 104.946 104.477C104.787 104.172 104.563 103.931 104.275 103.756C103.989 103.58 103.655 103.492 103.27 103.492C102.853 103.492 102.488 103.595 102.176 103.8C101.868 104.003 101.63 104.268 101.461 104.596C101.295 104.921 101.212 105.274 101.212 105.655V106.525C101.212 107.035 101.301 107.469 101.48 107.827C101.663 108.185 101.916 108.459 102.241 108.648C102.566 108.833 102.945 108.926 103.38 108.926C103.661 108.926 103.918 108.886 104.15 108.807C104.382 108.724 104.583 108.601 104.752 108.439C104.921 108.277 105.05 108.076 105.14 107.837L106.547 108.091C106.434 108.505 106.232 108.868 105.94 109.18C105.652 109.488 105.289 109.728 104.851 109.901C104.417 110.07 103.922 110.154 103.365 110.154ZM111.581 110.154C110.829 110.154 110.181 109.993 109.638 109.672C109.097 109.347 108.68 108.891 108.385 108.305C108.093 107.715 107.947 107.024 107.947 106.232C107.947 105.449 108.093 104.76 108.385 104.163C108.68 103.567 109.091 103.101 109.618 102.766C110.148 102.432 110.768 102.264 111.477 102.264C111.908 102.264 112.326 102.335 112.73 102.478C113.134 102.621 113.497 102.844 113.819 103.149C114.14 103.454 114.394 103.85 114.579 104.337C114.765 104.821 114.858 105.41 114.858 106.102V106.629H108.787V105.516H113.401C113.401 105.125 113.322 104.778 113.162 104.477C113.003 104.172 112.78 103.931 112.491 103.756C112.206 103.58 111.872 103.492 111.487 103.492C111.069 103.492 110.705 103.595 110.393 103.8C110.085 104.003 109.846 104.268 109.677 104.596C109.512 104.921 109.429 105.274 109.429 105.655V106.525C109.429 107.035 109.518 107.469 109.697 107.827C109.88 108.185 110.133 108.459 110.458 108.648C110.783 108.833 111.162 108.926 111.596 108.926C111.878 108.926 112.135 108.886 112.367 108.807C112.599 108.724 112.8 108.601 112.969 108.439C113.138 108.277 113.267 108.076 113.356 107.837L114.763 108.091C114.651 108.505 114.448 108.868 114.157 109.18C113.868 109.488 113.506 109.728 113.068 109.901C112.634 110.07 112.138 110.154 111.581 110.154ZM119.366 110.149C118.749 110.149 118.199 109.992 117.715 109.677C117.235 109.359 116.857 108.906 116.582 108.32C116.31 107.73 116.174 107.022 116.174 106.197C116.174 105.371 116.312 104.665 116.587 104.079C116.865 103.492 117.246 103.043 117.73 102.732C118.214 102.42 118.763 102.264 119.376 102.264C119.85 102.264 120.231 102.344 120.519 102.503C120.811 102.659 121.036 102.841 121.195 103.05C121.358 103.259 121.484 103.442 121.573 103.602H121.663V99.8182H123.149V110H121.697V108.812H121.573C121.484 108.974 121.354 109.16 121.185 109.369C121.02 109.577 120.791 109.76 120.499 109.915C120.208 110.071 119.83 110.149 119.366 110.149ZM119.694 108.881C120.121 108.881 120.483 108.769 120.778 108.543C121.076 108.315 121.301 107.998 121.454 107.594C121.61 107.189 121.688 106.719 121.688 106.182C121.688 105.652 121.611 105.187 121.459 104.79C121.306 104.392 121.083 104.082 120.788 103.86C120.493 103.638 120.128 103.527 119.694 103.527C119.246 103.527 118.874 103.643 118.575 103.875C118.277 104.107 118.052 104.424 117.899 104.825C117.75 105.226 117.675 105.678 117.675 106.182C117.675 106.692 117.752 107.151 117.904 107.559C118.057 107.967 118.282 108.29 118.58 108.528C118.882 108.764 119.253 108.881 119.694 108.881Z" fill="black"/>
<path d="M47.1186 139V128.818H50.7479C51.54 128.818 52.1963 128.962 52.7166 129.251C53.237 129.539 53.6264 129.933 53.8849 130.434C54.1435 130.931 54.2727 131.491 54.2727 132.114C54.2727 132.741 54.1418 133.304 53.88 133.805C53.6214 134.302 53.2304 134.696 52.7067 134.988C52.1863 135.276 51.5317 135.42 50.7429 135.42H48.2472V134.118H50.6037C51.1042 134.118 51.5102 134.032 51.8217 133.859C52.1333 133.684 52.362 133.445 52.5078 133.143C52.6536 132.842 52.7266 132.499 52.7266 132.114C52.7266 131.73 52.6536 131.388 52.5078 131.09C52.362 130.792 52.1316 130.558 51.8168 130.389C51.5052 130.22 51.0942 130.136 50.5838 130.136H48.6548V139H47.1186ZM58.1083 139.169C57.6244 139.169 57.1869 139.08 56.7958 138.901C56.4047 138.718 56.0948 138.455 55.8661 138.11C55.6407 137.765 55.5281 137.343 55.5281 136.842C55.5281 136.411 55.6109 136.057 55.7766 135.778C55.9424 135.5 56.1661 135.28 56.4478 135.117C56.7295 134.955 57.0444 134.832 57.3924 134.749C57.7404 134.666 58.0951 134.603 58.4563 134.56C58.9137 134.507 59.2849 134.464 59.57 134.431C59.855 134.395 60.0621 134.337 60.1914 134.257C60.3207 134.178 60.3853 134.048 60.3853 133.869V133.835C60.3853 133.4 60.2627 133.064 60.0174 132.825C59.7755 132.587 59.4142 132.467 58.9336 132.467C58.4331 132.467 58.0387 132.578 57.7504 132.8C57.4653 133.019 57.2681 133.263 57.1587 133.531L55.7617 133.213C55.9274 132.749 56.1694 132.375 56.4876 132.089C56.8091 131.801 57.1786 131.592 57.5962 131.463C58.0138 131.33 58.453 131.264 58.9137 131.264C59.2186 131.264 59.5418 131.301 59.8832 131.374C60.2279 131.443 60.5494 131.572 60.8477 131.761C61.1493 131.95 61.3962 132.22 61.5884 132.572C61.7807 132.92 61.8768 133.372 61.8768 133.929V139H60.4251V137.956H60.3654C60.2693 138.148 60.1251 138.337 59.9329 138.523C59.7406 138.708 59.4937 138.862 59.1921 138.985C58.8905 139.108 58.5292 139.169 58.1083 139.169ZM58.4315 137.976C58.8424 137.976 59.1938 137.895 59.4854 137.732C59.7804 137.57 60.0041 137.358 60.1566 137.096C60.3124 136.831 60.3903 136.547 60.3903 136.246V135.261C60.3372 135.314 60.2345 135.364 60.082 135.411C59.9329 135.454 59.7622 135.492 59.57 135.525C59.3777 135.555 59.1905 135.583 59.0082 135.609C58.8259 135.633 58.6734 135.652 58.5508 135.669C58.2624 135.705 57.9989 135.767 57.7603 135.853C57.525 135.939 57.3361 136.063 57.1935 136.226C57.0543 136.385 56.9847 136.597 56.9847 136.862C56.9847 137.23 57.1206 137.509 57.3924 137.697C57.6642 137.883 58.0105 137.976 58.4315 137.976ZM67.0584 142.023C66.4519 142.023 65.9299 141.943 65.4924 141.784C65.0582 141.625 64.7035 141.415 64.4284 141.153C64.1533 140.891 63.9479 140.604 63.812 140.293L65.0897 139.766C65.1792 139.911 65.2985 140.066 65.4476 140.228C65.6001 140.394 65.8056 140.535 66.0641 140.651C66.3259 140.767 66.6623 140.825 67.0733 140.825C67.6368 140.825 68.1025 140.687 68.4703 140.412C68.8382 140.14 69.0222 139.706 69.0222 139.109V137.608H68.9277C68.8382 137.77 68.709 137.951 68.54 138.15C68.3742 138.349 68.1455 138.521 67.8539 138.667C67.5622 138.813 67.1827 138.886 66.7154 138.886C66.1122 138.886 65.5686 138.745 65.0847 138.463C64.6041 138.178 64.223 137.759 63.9412 137.205C63.6628 136.648 63.5236 135.964 63.5236 135.152C63.5236 134.34 63.6612 133.644 63.9363 133.064C64.2147 132.484 64.5958 132.04 65.0797 131.732C65.5636 131.42 66.1122 131.264 66.7253 131.264C67.1993 131.264 67.5821 131.344 67.8738 131.503C68.1654 131.659 68.3925 131.841 68.5549 132.05C68.7206 132.259 68.8482 132.442 68.9377 132.602H69.0471V131.364H70.5037V139.169C70.5037 139.825 70.3513 140.364 70.0463 140.785C69.7414 141.206 69.3288 141.517 68.8084 141.719C68.2914 141.922 67.708 142.023 67.0584 142.023ZM67.0435 137.653C67.4711 137.653 67.8323 137.553 68.1273 137.354C68.4256 137.152 68.651 136.864 68.8034 136.489C68.9592 136.112 69.0371 135.659 69.0371 135.132C69.0371 134.618 68.9609 134.166 68.8084 133.775C68.656 133.384 68.4322 133.079 68.1373 132.86C67.8423 132.638 67.4777 132.527 67.0435 132.527C66.5961 132.527 66.2232 132.643 65.9249 132.875C65.6266 133.104 65.4012 133.415 65.2488 133.81C65.0996 134.204 65.025 134.645 65.025 135.132C65.025 135.633 65.1013 136.072 65.2537 136.45C65.4062 136.827 65.6316 137.122 65.9299 137.335C66.2315 137.547 66.6027 137.653 67.0435 137.653ZM75.7885 139.154C75.0362 139.154 74.3882 138.993 73.8446 138.672C73.3044 138.347 72.8868 137.891 72.5918 137.305C72.3001 136.715 72.1543 136.024 72.1543 135.232C72.1543 134.449 72.3001 133.76 72.5918 133.163C72.8868 132.567 73.2978 132.101 73.8248 131.766C74.3551 131.432 74.9748 131.264 75.6841 131.264C76.115 131.264 76.5326 131.335 76.937 131.478C77.3413 131.621 77.7042 131.844 78.0257 132.149C78.3472 132.454 78.6008 132.85 78.7864 133.337C78.972 133.821 79.0648 134.41 79.0648 135.102V135.629H72.9945V134.516H77.6081C77.6081 134.125 77.5286 133.778 77.3695 133.477C77.2104 133.172 76.9867 132.931 76.6983 132.756C76.4133 132.58 76.0785 132.492 75.6941 132.492C75.2765 132.492 74.9119 132.595 74.6003 132.8C74.2921 133.003 74.0534 133.268 73.8844 133.596C73.7187 133.921 73.6358 134.274 73.6358 134.655V135.525C73.6358 136.035 73.7253 136.469 73.9043 136.827C74.0866 137.185 74.3401 137.459 74.665 137.648C74.9898 137.833 75.3693 137.926 75.8034 137.926C76.0852 137.926 76.342 137.886 76.574 137.807C76.806 137.724 77.0066 137.601 77.1756 137.439C77.3446 137.277 77.4739 137.076 77.5634 136.837L78.9703 137.091C78.8577 137.505 78.6555 137.868 78.3638 138.18C78.0755 138.488 77.7125 138.728 77.275 138.901C76.8408 139.07 76.3453 139.154 75.7885 139.154ZM90.1415 133.228L88.7942 133.467C88.7379 133.294 88.6484 133.13 88.5257 132.974C88.4064 132.819 88.244 132.691 88.0385 132.592C87.833 132.492 87.5762 132.442 87.2679 132.442C86.847 132.442 86.4957 132.537 86.214 132.726C85.9322 132.911 85.7914 133.152 85.7914 133.447C85.7914 133.702 85.8858 133.907 86.0748 134.063C86.2637 134.219 86.5686 134.347 86.9895 134.446L88.2026 134.724C88.9052 134.887 89.4289 135.137 89.7736 135.475C90.1183 135.813 90.2907 136.252 90.2907 136.793C90.2907 137.25 90.1581 137.658 89.8929 138.016C89.6311 138.37 89.2649 138.649 88.7942 138.851C88.3269 139.053 87.785 139.154 87.1685 139.154C86.3134 139.154 85.6157 138.972 85.0755 138.607C84.5352 138.239 84.2038 137.717 84.0811 137.041L85.5179 136.822C85.6074 137.197 85.7914 137.48 86.0698 137.673C86.3482 137.862 86.7111 137.956 87.1586 137.956C87.6458 137.956 88.0352 137.855 88.3269 137.653C88.6185 137.447 88.7644 137.197 88.7644 136.902C88.7644 136.663 88.6749 136.463 88.4959 136.3C88.3203 136.138 88.0501 136.015 87.6855 135.933L86.3929 135.649C85.6803 135.487 85.1533 135.228 84.812 134.874C84.4739 134.519 84.3049 134.07 84.3049 133.526C84.3049 133.076 84.4308 132.681 84.6827 132.343C84.9346 132.005 85.2826 131.741 85.7267 131.553C86.1709 131.36 86.6796 131.264 87.253 131.264C88.0783 131.264 88.7279 131.443 89.2019 131.801C89.6758 132.156 89.9891 132.631 90.1415 133.228ZM91.9251 141.864V131.364H93.3768V132.602H93.5011C93.5872 132.442 93.7115 132.259 93.8739 132.05C94.0363 131.841 94.2617 131.659 94.5501 131.503C94.8384 131.344 95.2196 131.264 95.6935 131.264C96.31 131.264 96.8602 131.42 97.3441 131.732C97.828 132.043 98.2075 132.492 98.4826 133.079C98.761 133.665 98.9002 134.371 98.9002 135.197C98.9002 136.022 98.7627 136.73 98.4876 137.32C98.2125 137.906 97.8346 138.359 97.354 138.677C96.8735 138.992 96.3249 139.149 95.7085 139.149C95.2444 139.149 94.8649 139.071 94.57 138.915C94.2783 138.76 94.0496 138.577 93.8839 138.369C93.7182 138.16 93.5906 137.974 93.5011 137.812H93.4116V141.864H91.9251ZM93.3817 135.182C93.3817 135.719 93.4596 136.189 93.6154 136.594C93.7712 136.998 93.9966 137.315 94.2915 137.543C94.5865 137.769 94.9478 137.881 95.3754 137.881C95.8195 137.881 96.1907 137.764 96.489 137.528C96.7873 137.29 97.0127 136.967 97.1651 136.559C97.3209 136.151 97.3988 135.692 97.3988 135.182C97.3988 134.678 97.3226 134.226 97.1701 133.825C97.021 133.424 96.7956 133.107 96.494 132.875C96.1957 132.643 95.8228 132.527 95.3754 132.527C94.9445 132.527 94.5799 132.638 94.2816 132.86C93.9866 133.082 93.7629 133.392 93.6104 133.79C93.458 134.187 93.3817 134.652 93.3817 135.182ZM103.857 139.154C103.105 139.154 102.457 138.993 101.913 138.672C101.373 138.347 100.955 137.891 100.66 137.305C100.368 136.715 100.223 136.024 100.223 135.232C100.223 134.449 100.368 133.76 100.66 133.163C100.955 132.567 101.366 132.101 101.893 131.766C102.423 131.432 103.043 131.264 103.752 131.264C104.183 131.264 104.601 131.335 105.005 131.478C105.41 131.621 105.773 131.844 106.094 132.149C106.416 132.454 106.669 132.85 106.855 133.337C107.04 133.821 107.133 134.41 107.133 135.102V135.629H101.063V134.516H105.676C105.676 134.125 105.597 133.778 105.438 133.477C105.279 133.172 105.055 132.931 104.767 132.756C104.482 132.58 104.147 132.492 103.762 132.492C103.345 132.492 102.98 132.595 102.669 132.8C102.36 133.003 102.122 133.268 101.953 133.596C101.787 133.921 101.704 134.274 101.704 134.655V135.525C101.704 136.035 101.794 136.469 101.973 136.827C102.155 137.185 102.408 137.459 102.733 137.648C103.058 137.833 103.438 137.926 103.872 137.926C104.154 137.926 104.41 137.886 104.642 137.807C104.874 137.724 105.075 137.601 105.244 137.439C105.413 137.277 105.542 137.076 105.632 136.837L107.039 137.091C106.926 137.505 106.724 137.868 106.432 138.18C106.144 138.488 105.781 138.728 105.343 138.901C104.909 139.07 104.414 139.154 103.857 139.154ZM112.074 139.154C111.321 139.154 110.673 138.993 110.13 138.672C109.59 138.347 109.172 137.891 108.877 137.305C108.585 136.715 108.439 136.024 108.439 135.232C108.439 134.449 108.585 133.76 108.877 133.163C109.172 132.567 109.583 132.101 110.11 131.766C110.64 131.432 111.26 131.264 111.969 131.264C112.4 131.264 112.818 131.335 113.222 131.478C113.626 131.621 113.989 131.844 114.311 132.149C114.632 132.454 114.886 132.85 115.072 133.337C115.257 133.821 115.35 134.41 115.35 135.102V135.629H109.28V134.516H113.893C113.893 134.125 113.814 133.778 113.655 133.477C113.496 133.172 113.272 132.931 112.983 132.756C112.698 132.58 112.364 132.492 111.979 132.492C111.562 132.492 111.197 132.595 110.885 132.8C110.577 133.003 110.339 133.268 110.17 133.596C110.004 133.921 109.921 134.274 109.921 134.655V135.525C109.921 136.035 110.01 136.469 110.189 136.827C110.372 137.185 110.625 137.459 110.95 137.648C111.275 137.833 111.654 137.926 112.089 137.926C112.37 137.926 112.627 137.886 112.859 137.807C113.091 137.724 113.292 137.601 113.461 137.439C113.63 137.277 113.759 137.076 113.849 136.837L115.256 137.091C115.143 137.505 114.941 137.868 114.649 138.18C114.361 138.488 113.998 138.728 113.56 138.901C113.126 139.07 112.631 139.154 112.074 139.154ZM119.858 139.149C119.241 139.149 118.691 138.992 118.207 138.677C117.727 138.359 117.349 137.906 117.074 137.32C116.802 136.73 116.666 136.022 116.666 135.197C116.666 134.371 116.804 133.665 117.079 133.079C117.357 132.492 117.738 132.043 118.222 131.732C118.706 131.42 119.255 131.264 119.868 131.264C120.342 131.264 120.723 131.344 121.011 131.503C121.303 131.659 121.528 131.841 121.688 132.05C121.85 132.259 121.976 132.442 122.065 132.602H122.155V128.818H123.641V139H122.19V137.812H122.065C121.976 137.974 121.847 138.16 121.678 138.369C121.512 138.577 121.283 138.76 120.991 138.915C120.7 139.071 120.322 139.149 119.858 139.149ZM120.186 137.881C120.614 137.881 120.975 137.769 121.27 137.543C121.568 137.315 121.794 136.998 121.946 136.594C122.102 136.189 122.18 135.719 122.18 135.182C122.18 134.652 122.103 134.187 121.951 133.79C121.799 133.392 121.575 133.082 121.28 132.86C120.985 132.638 120.62 132.527 120.186 132.527C119.739 132.527 119.366 132.643 119.067 132.875C118.769 133.107 118.544 133.424 118.391 133.825C118.242 134.226 118.168 134.678 118.168 135.182C118.168 135.692 118.244 136.151 118.396 136.559C118.549 136.967 118.774 137.29 119.072 137.528C119.374 137.764 119.745 137.881 120.186 137.881Z" fill="black"/>
<path d="M47.1186 168V157.818H50.7479C51.54 157.818 52.1963 157.962 52.7166 158.251C53.237 158.539 53.6264 158.933 53.8849 159.434C54.1435 159.931 54.2727 160.491 54.2727 161.114C54.2727 161.741 54.1418 162.304 53.88 162.805C53.6214 163.302 53.2304 163.696 52.7067 163.988C52.1863 164.276 51.5317 164.42 50.7429 164.42H48.2472V163.118H50.6037C51.1042 163.118 51.5102 163.032 51.8217 162.859C52.1333 162.684 52.362 162.445 52.5078 162.143C52.6536 161.842 52.7266 161.499 52.7266 161.114C52.7266 160.73 52.6536 160.388 52.5078 160.09C52.362 159.792 52.1316 159.558 51.8168 159.389C51.5052 159.22 51.0942 159.136 50.5838 159.136H48.6548V168H47.1186ZM59.0753 168.154C58.3594 168.154 57.7346 167.99 57.201 167.662C56.6674 167.334 56.2531 166.875 55.9581 166.285C55.6631 165.695 55.5156 165.005 55.5156 164.217C55.5156 163.424 55.6631 162.732 55.9581 162.138C56.2531 161.545 56.6674 161.085 57.201 160.756C57.7346 160.428 58.3594 160.264 59.0753 160.264C59.7912 160.264 60.416 160.428 60.9496 160.756C61.4832 161.085 61.8975 161.545 62.1925 162.138C62.4875 162.732 62.6349 163.424 62.6349 164.217C62.6349 165.005 62.4875 165.695 62.1925 166.285C61.8975 166.875 61.4832 167.334 60.9496 167.662C60.416 167.99 59.7912 168.154 59.0753 168.154ZM59.0803 166.906C59.5443 166.906 59.9287 166.784 60.2337 166.538C60.5386 166.293 60.764 165.967 60.9098 165.559C61.0589 165.151 61.1335 164.702 61.1335 164.212C61.1335 163.724 61.0589 163.277 60.9098 162.869C60.764 162.458 60.5386 162.129 60.2337 161.88C59.9287 161.631 59.5443 161.507 59.0803 161.507C58.6129 161.507 58.2251 161.631 57.9169 161.88C57.612 162.129 57.3849 162.458 57.2358 162.869C57.09 163.277 57.017 163.724 57.017 164.212C57.017 164.702 57.09 165.151 57.2358 165.559C57.3849 165.967 57.612 166.293 57.9169 166.538C58.2251 166.784 58.6129 166.906 59.0803 166.906ZM65.7173 168L63.4702 160.364H65.0064L66.5028 165.972H66.5774L68.0788 160.364H69.6151L71.1065 165.947H71.1811L72.6676 160.364H74.2038L71.9616 168H70.4453L68.8942 162.487H68.7798L67.2287 168H65.7173ZM78.6733 168.154C77.9209 168.154 77.273 167.993 76.7294 167.672C76.1892 167.347 75.7715 166.891 75.4766 166.305C75.1849 165.715 75.0391 165.024 75.0391 164.232C75.0391 163.449 75.1849 162.76 75.4766 162.163C75.7715 161.567 76.1825 161.101 76.7095 160.766C77.2398 160.432 77.8596 160.264 78.5689 160.264C78.9998 160.264 79.4174 160.335 79.8217 160.478C80.2261 160.621 80.589 160.844 80.9105 161.149C81.232 161.454 81.4856 161.85 81.6712 162.337C81.8568 162.821 81.9496 163.41 81.9496 164.102V164.629H75.8793V163.516H80.4929C80.4929 163.125 80.4134 162.778 80.2543 162.477C80.0952 162.172 79.8714 161.931 79.5831 161.756C79.2981 161.58 78.9633 161.492 78.5788 161.492C78.1612 161.492 77.7966 161.595 77.4851 161.8C77.1768 162.003 76.9382 162.268 76.7692 162.596C76.6035 162.921 76.5206 163.274 76.5206 163.655V164.525C76.5206 165.035 76.6101 165.469 76.7891 165.827C76.9714 166.185 77.2249 166.459 77.5497 166.648C77.8745 166.833 78.254 166.926 78.6882 166.926C78.9699 166.926 79.2268 166.886 79.4588 166.807C79.6908 166.724 79.8913 166.601 80.0604 166.439C80.2294 166.277 80.3587 166.076 80.4482 165.837L81.8551 166.091C81.7424 166.505 81.5402 166.868 81.2486 167.18C80.9602 167.488 80.5973 167.728 80.1598 167.901C79.7256 168.07 79.2301 168.154 78.6733 168.154ZM83.5989 168V160.364H85.0357V161.577H85.1152C85.2544 161.166 85.4997 160.843 85.851 160.607C86.2057 160.369 86.6067 160.249 87.0542 160.249C87.147 160.249 87.2563 160.253 87.3823 160.259C87.5115 160.266 87.6126 160.274 87.6855 160.284V161.706C87.6259 161.689 87.5198 161.671 87.3674 161.651C87.2149 161.628 87.0624 161.616 86.91 161.616C86.5587 161.616 86.2454 161.691 85.9703 161.84C85.6986 161.986 85.4831 162.19 85.324 162.452C85.165 162.71 85.0854 163.005 85.0854 163.337V168H83.5989Z" fill="black"/>
</g>
<defs>
<filter id="filter0_d_26_83" x="0" y="0" width="352" height="224" filterUnits="userSpaceOnUse" color-interpolation-filters="sRGB">
<feFlood flood-opacity="0" result="BackgroundImageFix"/>
<feColorMatrix in="SourceAlpha" type="matrix" values="0 0 0 0 0 0 0 0 0 0 0 0 0 0 0 0 0 0 127 0" result="hardAlpha"/>
<feOffset/>
<feGaussianBlur stdDeviation="10"/>
<feComposite in2="hardAlpha" operator="out"/>
<feColorMatrix type="matrix" values="0 0 0 0 0 0 0 0 0 0 0 0 0 0 0 0 0 0 0.01 0"/>
<feBlend mode="normal" in2="BackgroundImageFix" result="effect1_dropShadow_26_83"/>
<feBlend mode="normal" in="SourceGraphic" in2="effect1_dropShadow_26_83" result="shape"/>
</filter>
</defs>
</svg>
