<svg width="352" height="224" viewBox="0 0 352 224" fill="none" xmlns="http://www.w3.org/2000/svg">
<g filter="url(#filter0_d_26_53)">
<rect x="21" y="21" width="310" height="182" rx="12" fill="white" stroke="#CFCFCF" stroke-width="2"/>
<path d="M51.3239 44.7102C51.2784 44.2519 51.0833 43.8958 50.7386 43.642C50.3939 43.3883 49.9261 43.2614 49.3352 43.2614C48.9337 43.2614 48.5947 43.3182 48.3182 43.4318C48.0417 43.5417 47.8295 43.6951 47.6818 43.892C47.5379 44.089 47.4659 44.3125 47.4659 44.5625C47.4583 44.7708 47.5019 44.9527 47.5966 45.108C47.6951 45.2633 47.8295 45.3977 48 45.5114C48.1705 45.6212 48.3674 45.7178 48.5909 45.8011C48.8144 45.8807 49.053 45.9489 49.3068 46.0057L50.3523 46.2557C50.8598 46.3693 51.3258 46.5208 51.75 46.7102C52.1742 46.8996 52.5417 47.1326 52.8523 47.4091C53.1629 47.6856 53.4034 48.0114 53.5739 48.3864C53.7481 48.7614 53.8371 49.1913 53.8409 49.6761C53.8371 50.3883 53.6553 51.0057 53.2955 51.5284C52.9394 52.0473 52.4242 52.4508 51.75 52.7386C51.0795 53.0227 50.2708 53.1648 49.3239 53.1648C48.3845 53.1648 47.5663 53.0208 46.8693 52.733C46.1761 52.4451 45.6345 52.0189 45.2443 51.4545C44.858 50.8864 44.6553 50.1837 44.6364 49.3466H47.017C47.0436 49.7367 47.1553 50.0625 47.3523 50.3239C47.553 50.5814 47.8201 50.7765 48.1534 50.9091C48.4905 51.0379 48.8712 51.1023 49.2955 51.1023C49.7121 51.1023 50.0739 51.0417 50.3807 50.9205C50.6913 50.7992 50.9318 50.6307 51.1023 50.4148C51.2727 50.1989 51.358 49.9508 51.358 49.6705C51.358 49.4091 51.2803 49.1894 51.125 49.0114C50.9735 48.8333 50.75 48.6818 50.4545 48.5568C50.1629 48.4318 49.8049 48.3182 49.3807 48.2159L48.1136 47.8977C47.1326 47.6591 46.358 47.286 45.7898 46.7784C45.2216 46.2708 44.9394 45.5871 44.9432 44.7273C44.9394 44.0227 45.1269 43.4072 45.5057 42.8807C45.8883 42.3542 46.4129 41.9432 47.0795 41.6477C47.7462 41.3523 48.5038 41.2045 49.3523 41.2045C50.2159 41.2045 50.9697 41.3523 51.6136 41.6477C52.2614 41.9432 52.7652 42.3542 53.125 42.8807C53.4848 43.4072 53.6705 44.017 53.6818 44.7102H51.3239ZM59.4276 53.1705C58.5298 53.1705 57.7571 52.9886 57.1094 52.625C56.4654 52.2576 55.9692 51.7386 55.6207 51.0682C55.2723 50.3939 55.098 49.5966 55.098 48.6761C55.098 47.7784 55.2723 46.9905 55.6207 46.3125C55.9692 45.6345 56.4598 45.1061 57.0923 44.7273C57.7287 44.3485 58.4749 44.1591 59.331 44.1591C59.9067 44.1591 60.4427 44.2519 60.9389 44.4375C61.4389 44.6193 61.8745 44.8939 62.2457 45.2614C62.6207 45.6288 62.9124 46.0909 63.1207 46.6477C63.3291 47.2008 63.4332 47.8485 63.4332 48.5909V49.2557H56.0639V47.7557H61.1548C61.1548 47.4072 61.0791 47.0985 60.9276 46.8295C60.776 46.5606 60.5658 46.3504 60.2969 46.1989C60.0317 46.0436 59.723 45.9659 59.3707 45.9659C59.0033 45.9659 58.6776 46.0511 58.3935 46.2216C58.1132 46.3883 57.8935 46.6136 57.7344 46.8977C57.5753 47.178 57.4938 47.4905 57.4901 47.8352V49.2614C57.4901 49.6932 57.5696 50.0663 57.7287 50.3807C57.8916 50.6951 58.1207 50.9375 58.4162 51.108C58.7116 51.2784 59.062 51.3636 59.4673 51.3636C59.7363 51.3636 59.9825 51.3258 60.206 51.25C60.4295 51.1742 60.6207 51.0606 60.7798 50.9091C60.9389 50.7576 61.0601 50.572 61.1435 50.3523L63.3821 50.5C63.2685 51.0379 63.0355 51.5076 62.6832 51.9091C62.3348 52.3068 61.884 52.6174 61.331 52.8409C60.7817 53.0606 60.1473 53.1705 59.4276 53.1705ZM65.0128 53V44.2727H67.3594V45.7955H67.4503C67.6094 45.2538 67.8764 44.8447 68.2514 44.5682C68.6264 44.2879 69.0582 44.1477 69.5469 44.1477C69.6681 44.1477 69.7988 44.1553 69.9389 44.1705C70.0791 44.1856 70.2022 44.2064 70.3082 44.233V46.3807C70.1946 46.3466 70.0374 46.3163 69.8366 46.2898C69.6359 46.2633 69.4522 46.25 69.2855 46.25C68.9295 46.25 68.6113 46.3277 68.331 46.483C68.0545 46.6345 67.8348 46.8466 67.6719 47.1193C67.5128 47.392 67.4332 47.7064 67.4332 48.0625V53H65.0128ZM79.9616 44.2727L76.9105 53H74.1832L71.1321 44.2727H73.6889L75.5014 50.517H75.5923L77.3991 44.2727H79.9616ZM84.8963 53.1705C83.9986 53.1705 83.2259 52.9886 82.5781 52.625C81.9342 52.2576 81.438 51.7386 81.0895 51.0682C80.741 50.3939 80.5668 49.5966 80.5668 48.6761C80.5668 47.7784 80.741 46.9905 81.0895 46.3125C81.438 45.6345 81.9285 45.1061 82.5611 44.7273C83.1974 44.3485 83.9437 44.1591 84.7997 44.1591C85.3755 44.1591 85.9115 44.2519 86.4077 44.4375C86.9077 44.6193 87.3433 44.8939 87.7145 45.2614C88.0895 45.6288 88.3812 46.0909 88.5895 46.6477C88.7978 47.2008 88.902 47.8485 88.902 48.5909V49.2557H81.5327V47.7557H86.6236C86.6236 47.4072 86.5478 47.0985 86.3963 46.8295C86.2448 46.5606 86.0346 46.3504 85.7656 46.1989C85.5005 46.0436 85.1918 45.9659 84.8395 45.9659C84.4721 45.9659 84.1463 46.0511 83.8622 46.2216C83.5819 46.3883 83.3622 46.6136 83.2031 46.8977C83.044 47.178 82.9626 47.4905 82.9588 47.8352V49.2614C82.9588 49.6932 83.0384 50.0663 83.1974 50.3807C83.3603 50.6951 83.5895 50.9375 83.8849 51.108C84.1804 51.2784 84.5308 51.3636 84.9361 51.3636C85.205 51.3636 85.4512 51.3258 85.6747 51.25C85.8982 51.1742 86.0895 51.0606 86.2486 50.9091C86.4077 50.7576 86.5289 50.572 86.6122 50.3523L88.8509 50.5C88.7372 51.0379 88.5043 51.5076 88.152 51.9091C87.8035 52.3068 87.3527 52.6174 86.7997 52.8409C86.2505 53.0606 85.616 53.1705 84.8963 53.1705ZM90.4815 53V44.2727H92.8281V45.7955H92.919C93.0781 45.2538 93.3452 44.8447 93.7202 44.5682C94.0952 44.2879 94.527 44.1477 95.0156 44.1477C95.1368 44.1477 95.2675 44.1553 95.4077 44.1705C95.5478 44.1856 95.6709 44.2064 95.777 44.233V46.3807C95.6634 46.3466 95.5062 46.3163 95.3054 46.2898C95.1046 46.2633 94.9209 46.25 94.7543 46.25C94.3982 46.25 94.08 46.3277 93.7997 46.483C93.5232 46.6345 93.3035 46.8466 93.1406 47.1193C92.9815 47.392 92.902 47.7064 92.902 48.0625V53H90.4815ZM102.2 47.2614V49.1818H96.8935V47.2614H102.2ZM111.524 46.7614L109.308 46.8977C109.27 46.7083 109.189 46.5379 109.064 46.3864C108.939 46.2311 108.774 46.108 108.57 46.017C108.369 45.9223 108.128 45.875 107.848 45.875C107.473 45.875 107.157 45.9545 106.899 46.1136C106.642 46.2689 106.513 46.4773 106.513 46.7386C106.513 46.947 106.596 47.1231 106.763 47.267C106.929 47.411 107.215 47.5265 107.621 47.6136L109.2 47.9318C110.049 48.1061 110.681 48.3864 111.098 48.7727C111.515 49.1591 111.723 49.6667 111.723 50.2955C111.723 50.8674 111.554 51.3693 111.217 51.8011C110.884 52.233 110.426 52.5701 109.842 52.8125C109.263 53.0511 108.594 53.1705 107.837 53.1705C106.681 53.1705 105.761 52.9299 105.075 52.4489C104.393 51.964 103.994 51.3049 103.876 50.4716L106.257 50.3466C106.329 50.6989 106.503 50.9678 106.78 51.1534C107.056 51.3352 107.411 51.4261 107.842 51.4261C108.267 51.4261 108.607 51.3447 108.865 51.1818C109.126 51.0152 109.259 50.8011 109.263 50.5398C109.259 50.3201 109.166 50.1402 108.984 50C108.803 49.8561 108.522 49.7462 108.143 49.6705L106.632 49.3693C105.78 49.1989 105.145 48.9034 104.729 48.483C104.316 48.0625 104.109 47.5265 104.109 46.875C104.109 46.3144 104.261 45.8314 104.564 45.4261C104.871 45.0208 105.301 44.7083 105.854 44.4886C106.411 44.2689 107.062 44.1591 107.808 44.1591C108.911 44.1591 109.778 44.392 110.411 44.858C111.047 45.3239 111.418 45.9583 111.524 46.7614ZM113.247 53V44.2727H115.668V53H113.247ZM114.463 43.1477C114.103 43.1477 113.795 43.0284 113.537 42.7898C113.283 42.5473 113.156 42.2576 113.156 41.9205C113.156 41.5871 113.283 41.3011 113.537 41.0625C113.795 40.8201 114.103 40.6989 114.463 40.6989C114.823 40.6989 115.13 40.8201 115.384 41.0625C115.641 41.3011 115.77 41.5871 115.77 41.9205C115.77 42.2576 115.641 42.5473 115.384 42.7898C115.13 43.0284 114.823 43.1477 114.463 43.1477ZM120.822 53.142C120.16 53.142 119.559 52.9716 119.021 52.6307C118.487 52.286 118.063 51.7803 117.749 51.1136C117.438 50.4432 117.283 49.6212 117.283 48.6477C117.283 47.6477 117.444 46.8163 117.766 46.1534C118.088 45.4867 118.516 44.9886 119.05 44.6591C119.588 44.3258 120.177 44.1591 120.817 44.1591C121.305 44.1591 121.713 44.2424 122.038 44.4091C122.368 44.572 122.633 44.7765 122.834 45.0227C123.038 45.2652 123.194 45.5038 123.3 45.7386H123.374V41.3636H125.788V53H123.402V51.6023H123.3C123.186 51.8447 123.025 52.0852 122.817 52.3239C122.612 52.5587 122.345 52.7538 122.016 52.9091C121.69 53.0644 121.292 53.142 120.822 53.142ZM121.589 51.2159C121.98 51.2159 122.309 51.1098 122.578 50.8977C122.851 50.6818 123.059 50.3807 123.203 49.9943C123.351 49.608 123.425 49.1553 123.425 48.6364C123.425 48.1174 123.353 47.6667 123.209 47.2841C123.065 46.9015 122.857 46.6061 122.584 46.3977C122.311 46.1894 121.98 46.0852 121.589 46.0852C121.192 46.0852 120.857 46.1932 120.584 46.4091C120.311 46.625 120.105 46.9242 119.964 47.3068C119.824 47.6894 119.754 48.1326 119.754 48.6364C119.754 49.1439 119.824 49.5928 119.964 49.983C120.108 50.3693 120.315 50.6723 120.584 50.892C120.857 51.108 121.192 51.2159 121.589 51.2159ZM131.756 53.1705C130.858 53.1705 130.085 52.9886 129.438 52.625C128.794 52.2576 128.297 51.7386 127.949 51.0682C127.6 50.3939 127.426 49.5966 127.426 48.6761C127.426 47.7784 127.6 46.9905 127.949 46.3125C128.297 45.6345 128.788 45.1061 129.42 44.7273C130.057 44.3485 130.803 44.1591 131.659 44.1591C132.235 44.1591 132.771 44.2519 133.267 44.4375C133.767 44.6193 134.203 44.8939 134.574 45.2614C134.949 45.6288 135.241 46.0909 135.449 46.6477C135.657 47.2008 135.761 47.8485 135.761 48.5909V49.2557H128.392V47.7557H133.483C133.483 47.4072 133.407 47.0985 133.256 46.8295C133.104 46.5606 132.894 46.3504 132.625 46.1989C132.36 46.0436 132.051 45.9659 131.699 45.9659C131.331 45.9659 131.006 46.0511 130.722 46.2216C130.441 46.3883 130.222 46.6136 130.062 46.8977C129.903 47.178 129.822 47.4905 129.818 47.8352V49.2614C129.818 49.6932 129.898 50.0663 130.057 50.3807C130.22 50.6951 130.449 50.9375 130.744 51.108C131.04 51.2784 131.39 51.3636 131.795 51.3636C132.064 51.3636 132.311 51.3258 132.534 51.25C132.758 51.1742 132.949 51.0606 133.108 50.9091C133.267 50.7576 133.388 50.572 133.472 50.3523L135.71 50.5C135.597 51.0379 135.364 51.5076 135.011 51.9091C134.663 52.3068 134.212 52.6174 133.659 52.8409C133.11 53.0606 132.475 53.1705 131.756 53.1705ZM141.044 53V44.2727H143.391V45.7955H143.482C143.641 45.2538 143.908 44.8447 144.283 44.5682C144.658 44.2879 145.089 44.1477 145.578 44.1477C145.699 44.1477 145.83 44.1553 145.97 44.1705C146.11 44.1856 146.233 44.2064 146.339 44.233V46.3807C146.226 46.3466 146.069 46.3163 145.868 46.2898C145.667 46.2633 145.483 46.25 145.317 46.25C144.961 46.25 144.643 46.3277 144.362 46.483C144.086 46.6345 143.866 46.8466 143.703 47.1193C143.544 47.392 143.464 47.7064 143.464 48.0625V53H141.044ZM151.162 53.1705C150.264 53.1705 149.491 52.9886 148.844 52.625C148.2 52.2576 147.704 51.7386 147.355 51.0682C147.007 50.3939 146.832 49.5966 146.832 48.6761C146.832 47.7784 147.007 46.9905 147.355 46.3125C147.704 45.6345 148.194 45.1061 148.827 44.7273C149.463 44.3485 150.209 44.1591 151.065 44.1591C151.641 44.1591 152.177 44.2519 152.673 44.4375C153.173 44.6193 153.609 44.8939 153.98 45.2614C154.355 45.6288 154.647 46.0909 154.855 46.6477C155.063 47.2008 155.168 47.8485 155.168 48.5909V49.2557H147.798V47.7557H152.889C152.889 47.4072 152.813 47.0985 152.662 46.8295C152.51 46.5606 152.3 46.3504 152.031 46.1989C151.766 46.0436 151.457 45.9659 151.105 45.9659C150.738 45.9659 150.412 46.0511 150.128 46.2216C149.848 46.3883 149.628 46.6136 149.469 46.8977C149.31 47.178 149.228 47.4905 149.224 47.8352V49.2614C149.224 49.6932 149.304 50.0663 149.463 50.3807C149.626 50.6951 149.855 50.9375 150.151 51.108C150.446 51.2784 150.796 51.3636 151.202 51.3636C151.471 51.3636 151.717 51.3258 151.94 51.25C152.164 51.1742 152.355 51.0606 152.514 50.9091C152.673 50.7576 152.795 50.572 152.878 50.3523L155.116 50.5C155.003 51.0379 154.77 51.5076 154.418 51.9091C154.069 52.3068 153.618 52.6174 153.065 52.8409C152.516 53.0606 151.882 53.1705 151.162 53.1705ZM159.168 47.9545V53H156.747V44.2727H159.054V45.8125H159.156C159.349 45.3049 159.673 44.9034 160.128 44.608C160.582 44.3087 161.134 44.1591 161.781 44.1591C162.387 44.1591 162.916 44.2917 163.366 44.5568C163.817 44.822 164.168 45.2008 164.418 45.6932C164.668 46.1818 164.793 46.7652 164.793 47.4432V53H162.372V47.875C162.376 47.3409 162.24 46.9242 161.963 46.625C161.687 46.322 161.306 46.1705 160.821 46.1705C160.495 46.1705 160.207 46.2405 159.957 46.3807C159.711 46.5208 159.518 46.7254 159.378 46.9943C159.241 47.2595 159.171 47.5795 159.168 47.9545ZM169.916 53.142C169.253 53.142 168.653 52.9716 168.115 52.6307C167.581 52.286 167.157 51.7803 166.842 51.1136C166.532 50.4432 166.376 49.6212 166.376 48.6477C166.376 47.6477 166.537 46.8163 166.859 46.1534C167.181 45.4867 167.609 44.9886 168.143 44.6591C168.681 44.3258 169.27 44.1591 169.911 44.1591C170.399 44.1591 170.806 44.2424 171.132 44.4091C171.462 44.572 171.727 44.7765 171.928 45.0227C172.132 45.2652 172.287 45.5038 172.393 45.7386H172.467V41.3636H174.882V53H172.496V51.6023H172.393C172.28 51.8447 172.119 52.0852 171.911 52.3239C171.706 52.5587 171.439 52.7538 171.109 52.9091C170.784 53.0644 170.386 53.142 169.916 53.142ZM170.683 51.2159C171.073 51.2159 171.403 51.1098 171.672 50.8977C171.945 50.6818 172.153 50.3807 172.297 49.9943C172.445 49.608 172.518 49.1553 172.518 48.6364C172.518 48.1174 172.446 47.6667 172.303 47.2841C172.159 46.9015 171.95 46.6061 171.678 46.3977C171.405 46.1894 171.073 46.0852 170.683 46.0852C170.286 46.0852 169.95 46.1932 169.678 46.4091C169.405 46.625 169.198 46.9242 169.058 47.3068C168.918 47.6894 168.848 48.1326 168.848 48.6364C168.848 49.1439 168.918 49.5928 169.058 49.983C169.202 50.3693 169.409 50.6723 169.678 50.892C169.95 51.108 170.286 51.2159 170.683 51.2159ZM180.849 53.1705C179.952 53.1705 179.179 52.9886 178.531 52.625C177.887 52.2576 177.391 51.7386 177.043 51.0682C176.694 50.3939 176.52 49.5966 176.52 48.6761C176.52 47.7784 176.694 46.9905 177.043 46.3125C177.391 45.6345 177.882 45.1061 178.514 44.7273C179.151 44.3485 179.897 44.1591 180.753 44.1591C181.329 44.1591 181.865 44.2519 182.361 44.4375C182.861 44.6193 183.296 44.8939 183.668 45.2614C184.043 45.6288 184.334 46.0909 184.543 46.6477C184.751 47.2008 184.855 47.8485 184.855 48.5909V49.2557H177.486V47.7557H182.577C182.577 47.4072 182.501 47.0985 182.349 46.8295C182.198 46.5606 181.988 46.3504 181.719 46.1989C181.454 46.0436 181.145 45.9659 180.793 45.9659C180.425 45.9659 180.099 46.0511 179.815 46.2216C179.535 46.3883 179.315 46.6136 179.156 46.8977C178.997 47.178 178.916 47.4905 178.912 47.8352V49.2614C178.912 49.6932 178.991 50.0663 179.151 50.3807C179.313 50.6951 179.543 50.9375 179.838 51.108C180.134 51.2784 180.484 51.3636 180.889 51.3636C181.158 51.3636 181.404 51.3258 181.628 51.25C181.851 51.1742 182.043 51.0606 182.202 50.9091C182.361 50.7576 182.482 50.572 182.565 50.3523L184.804 50.5C184.69 51.0379 184.457 51.5076 184.105 51.9091C183.757 52.3068 183.306 52.6174 182.753 52.8409C182.204 53.0606 181.569 53.1705 180.849 53.1705ZM186.435 53V44.2727H188.781V45.7955H188.872C189.031 45.2538 189.298 44.8447 189.673 44.5682C190.048 44.2879 190.48 44.1477 190.969 44.1477C191.09 44.1477 191.221 44.1553 191.361 44.1705C191.501 44.1856 191.624 44.2064 191.73 44.233V46.3807C191.616 46.3466 191.459 46.3163 191.259 46.2898C191.058 46.2633 190.874 46.25 190.707 46.25C190.351 46.25 190.033 46.3277 189.753 46.483C189.476 46.6345 189.257 46.8466 189.094 47.1193C188.935 47.392 188.855 47.7064 188.855 48.0625V53H186.435ZM192.982 53V44.2727H195.402V53H192.982ZM194.197 43.1477C193.838 43.1477 193.529 43.0284 193.271 42.7898C193.018 42.5473 192.891 42.2576 192.891 41.9205C192.891 41.5871 193.018 41.3011 193.271 41.0625C193.529 40.8201 193.838 40.6989 194.197 40.6989C194.557 40.6989 194.864 40.8201 195.118 41.0625C195.375 41.3011 195.504 41.5871 195.504 41.9205C195.504 42.2576 195.375 42.5473 195.118 42.7898C194.864 43.0284 194.557 43.1477 194.197 43.1477ZM199.761 47.9545V53H197.341V44.2727H199.648V45.8125H199.75C199.943 45.3049 200.267 44.9034 200.722 44.608C201.176 44.3087 201.727 44.1591 202.375 44.1591C202.981 44.1591 203.509 44.2917 203.96 44.5568C204.411 44.822 204.761 45.2008 205.011 45.6932C205.261 46.1818 205.386 46.7652 205.386 47.4432V53H202.966V47.875C202.97 47.3409 202.833 46.9242 202.557 46.625C202.28 46.322 201.9 46.1705 201.415 46.1705C201.089 46.1705 200.801 46.2405 200.551 46.3807C200.305 46.5208 200.112 46.7254 199.972 46.9943C199.835 47.2595 199.765 47.5795 199.761 47.9545ZM211.226 56.4545C210.442 56.4545 209.769 56.3466 209.209 56.1307C208.652 55.9186 208.209 55.6288 207.879 55.2614C207.55 54.8939 207.336 54.4811 207.237 54.0227L209.476 53.7216C209.544 53.8958 209.652 54.0587 209.8 54.2102C209.947 54.3617 210.143 54.483 210.385 54.5739C210.631 54.6686 210.93 54.7159 211.283 54.7159C211.809 54.7159 212.243 54.5871 212.584 54.3295C212.929 54.0758 213.101 53.6496 213.101 53.0511V51.4545H212.999C212.893 51.697 212.733 51.9261 212.521 52.142C212.309 52.358 212.036 52.5341 211.703 52.6705C211.37 52.8068 210.972 52.875 210.51 52.875C209.855 52.875 209.258 52.7235 208.72 52.4205C208.186 52.1136 207.76 51.6458 207.442 51.017C207.127 50.3845 206.97 49.5852 206.97 48.6193C206.97 47.6307 207.131 46.8049 207.453 46.142C207.775 45.4792 208.203 44.983 208.737 44.6534C209.275 44.3239 209.864 44.1591 210.504 44.1591C210.993 44.1591 211.402 44.2424 211.732 44.4091C212.061 44.572 212.326 44.7765 212.527 45.0227C212.732 45.2652 212.889 45.5038 212.999 45.7386H213.089V44.2727H215.493V53.0852C215.493 53.8277 215.311 54.4489 214.947 54.9489C214.584 55.4489 214.08 55.8239 213.436 56.0739C212.796 56.3277 212.059 56.4545 211.226 56.4545ZM211.277 51.0568C211.667 51.0568 211.997 50.9602 212.266 50.767C212.538 50.5701 212.747 50.2898 212.891 49.9261C213.038 49.5587 213.112 49.1193 213.112 48.608C213.112 48.0966 213.04 47.6534 212.896 47.2784C212.752 46.8996 212.544 46.6061 212.271 46.3977C211.999 46.1894 211.667 46.0852 211.277 46.0852C210.879 46.0852 210.544 46.1932 210.271 46.4091C209.999 46.6212 209.792 46.9167 209.652 47.2955C209.512 47.6742 209.442 48.1117 209.442 48.608C209.442 49.1117 209.512 49.5473 209.652 49.9148C209.796 50.2784 210.002 50.5606 210.271 50.7614C210.544 50.9583 210.879 51.0568 211.277 51.0568Z" fill="black"/>
<rect x="174" y="123" width="130" height="22" rx="3" fill="#E4E4E4"/>
<rect x="174" y="123" width="106" height="22" rx="3" fill="#1038C7"/>
<rect x="174" y="152" width="130" height="22" rx="3" fill="#E4E4E4"/>
<rect x="174" y="152" width="106" height="22" rx="3" fill="#1038C7"/>
<rect x="174" y="94" width="130" height="22" rx="3" fill="#E4E4E4"/>
<rect x="174" y="94" width="25" height="22" rx="3" fill="#1038C7"/>
<path d="M47.1186 110V99.8182H50.8473C51.5698 99.8182 52.1681 99.9375 52.642 100.176C53.116 100.411 53.4706 100.731 53.706 101.136C53.9413 101.537 54.0589 101.989 54.0589 102.493C54.0589 102.917 53.9811 103.275 53.8253 103.567C53.6695 103.855 53.4607 104.087 53.1989 104.263C52.9403 104.435 52.6553 104.561 52.3438 104.641V104.74C52.6818 104.757 53.0116 104.866 53.3331 105.068C53.6579 105.267 53.9264 105.55 54.1385 105.918C54.3506 106.286 54.4567 106.734 54.4567 107.261C54.4567 107.781 54.334 108.248 54.0888 108.663C53.8468 109.074 53.4723 109.4 52.9652 109.642C52.4581 109.881 51.8101 110 51.0213 110H47.1186ZM48.6548 108.683H50.8722C51.608 108.683 52.1349 108.54 52.4531 108.255C52.7713 107.97 52.9304 107.614 52.9304 107.186C52.9304 106.865 52.8492 106.57 52.6868 106.301C52.5244 106.033 52.2924 105.819 51.9908 105.66C51.6925 105.501 51.3378 105.421 50.9268 105.421H48.6548V108.683ZM48.6548 104.223H50.7131C51.0578 104.223 51.3677 104.157 51.6428 104.024C51.9212 103.892 52.1416 103.706 52.304 103.467C52.4697 103.225 52.5526 102.94 52.5526 102.612C52.5526 102.191 52.4051 101.838 52.1101 101.553C51.8151 101.268 51.3627 101.126 50.7528 101.126H48.6548V104.223ZM60.9968 106.833V102.364H62.4883V110H61.0266V108.678H60.9471C60.7714 109.085 60.4897 109.425 60.1019 109.697C59.7174 109.965 59.2385 110.099 58.6651 110.099C58.1746 110.099 57.7404 109.992 57.3626 109.776C56.988 109.558 56.6931 109.234 56.4776 108.807C56.2655 108.379 56.1594 107.851 56.1594 107.221V102.364H57.646V107.042C57.646 107.562 57.7901 107.977 58.0785 108.285C58.3668 108.593 58.7414 108.747 59.2021 108.747C59.4805 108.747 59.7572 108.678 60.0323 108.538C60.3107 108.399 60.5411 108.189 60.7234 107.907C60.909 107.625 61.0001 107.267 60.9968 106.833ZM64.4856 110V102.364H65.9721V110H64.4856ZM65.2363 101.185C64.9778 101.185 64.7557 101.099 64.5701 100.927C64.3878 100.751 64.2967 100.542 64.2967 100.3C64.2967 100.055 64.3878 99.8464 64.5701 99.674C64.7557 99.4983 64.9778 99.4105 65.2363 99.4105C65.4949 99.4105 65.7153 99.4983 65.8975 99.674C66.0832 99.8464 66.176 100.055 66.176 100.3C66.176 100.542 66.0832 100.751 65.8975 100.927C65.7153 101.099 65.4949 101.185 65.2363 101.185ZM69.4585 99.8182V110H67.9719V99.8182H69.4585ZM74.3169 110.149C73.7005 110.149 73.1503 109.992 72.6664 109.677C72.1858 109.359 71.8079 108.906 71.5328 108.32C71.2611 107.73 71.1252 107.022 71.1252 106.197C71.1252 105.371 71.2627 104.665 71.5378 104.079C71.8162 103.492 72.1974 103.043 72.6813 102.732C73.1652 102.42 73.7137 102.264 74.3269 102.264C74.8008 102.264 75.182 102.344 75.4703 102.503C75.762 102.659 75.9874 102.841 76.1465 103.05C76.3089 103.259 76.4348 103.442 76.5243 103.602H76.6138V99.8182H78.1003V110H76.6486V108.812H76.5243C76.4348 108.974 76.3056 109.16 76.1365 109.369C75.9708 109.577 75.7421 109.76 75.4505 109.915C75.1588 110.071 74.781 110.149 74.3169 110.149ZM74.6451 108.881C75.0726 108.881 75.4339 108.769 75.7289 108.543C76.0272 108.315 76.2525 107.998 76.405 107.594C76.5608 107.189 76.6387 106.719 76.6387 106.182C76.6387 105.652 76.5624 105.187 76.41 104.79C76.2575 104.392 76.0338 104.082 75.7388 103.86C75.4438 103.638 75.0792 103.527 74.6451 103.527C74.1976 103.527 73.8248 103.643 73.5265 103.875C73.2282 104.107 73.0028 104.424 72.8503 104.825C72.7012 105.226 72.6266 105.678 72.6266 106.182C72.6266 106.692 72.7028 107.151 72.8553 107.559C73.0078 107.967 73.2331 108.29 73.5314 108.528C73.833 108.764 74.2042 108.881 74.6451 108.881ZM89.6493 104.228L88.302 104.467C88.2457 104.294 88.1562 104.13 88.0336 103.974C87.9142 103.819 87.7518 103.691 87.5463 103.592C87.3409 103.492 87.084 103.442 86.7757 103.442C86.3548 103.442 86.0035 103.537 85.7218 103.726C85.44 103.911 85.2992 104.152 85.2992 104.447C85.2992 104.702 85.3936 104.907 85.5826 105.063C85.7715 105.219 86.0764 105.347 86.4973 105.446L87.7104 105.724C88.4131 105.887 88.9367 106.137 89.2814 106.475C89.6261 106.813 89.7985 107.252 89.7985 107.793C89.7985 108.25 89.6659 108.658 89.4007 109.016C89.1389 109.37 88.7727 109.649 88.302 109.851C87.8347 110.053 87.2928 110.154 86.6763 110.154C85.8212 110.154 85.1235 109.972 84.5833 109.607C84.043 109.239 83.7116 108.717 83.589 108.041L85.0257 107.822C85.1152 108.197 85.2992 108.48 85.5776 108.673C85.856 108.862 86.2189 108.956 86.6664 108.956C87.1536 108.956 87.543 108.855 87.8347 108.653C88.1264 108.447 88.2722 108.197 88.2722 107.902C88.2722 107.663 88.1827 107.463 88.0037 107.3C87.8281 107.138 87.5579 107.015 87.1934 106.933L85.9007 106.649C85.1882 106.487 84.6612 106.228 84.3198 105.874C83.9817 105.519 83.8127 105.07 83.8127 104.526C83.8127 104.076 83.9386 103.681 84.1905 103.343C84.4424 103.005 84.7904 102.741 85.2346 102.553C85.6787 102.36 86.1874 102.264 86.7608 102.264C87.5861 102.264 88.2357 102.443 88.7097 102.801C89.1837 103.156 89.4969 103.631 89.6493 104.228ZM91.4329 112.864V102.364H92.8846V103.602H93.0089C93.0951 103.442 93.2193 103.259 93.3817 103.05C93.5442 102.841 93.7695 102.659 94.0579 102.503C94.3462 102.344 94.7274 102.264 95.2013 102.264C95.8178 102.264 96.368 102.42 96.8519 102.732C97.3358 103.043 97.7153 103.492 97.9904 104.079C98.2688 104.665 98.408 105.371 98.408 106.197C98.408 107.022 98.2705 107.73 97.9954 108.32C97.7203 108.906 97.3424 109.359 96.8619 109.677C96.3813 109.992 95.8327 110.149 95.2163 110.149C94.7522 110.149 94.3728 110.071 94.0778 109.915C93.7861 109.76 93.5574 109.577 93.3917 109.369C93.226 109.16 93.0984 108.974 93.0089 108.812H92.9194V112.864H91.4329ZM92.8896 106.182C92.8896 106.719 92.9674 107.189 93.1232 107.594C93.279 107.998 93.5044 108.315 93.7994 108.543C94.0943 108.769 94.4556 108.881 94.8832 108.881C95.3273 108.881 95.6985 108.764 95.9968 108.528C96.2951 108.29 96.5205 107.967 96.6729 107.559C96.8287 107.151 96.9066 106.692 96.9066 106.182C96.9066 105.678 96.8304 105.226 96.6779 104.825C96.5288 104.424 96.3034 104.107 96.0018 103.875C95.7035 103.643 95.3306 103.527 94.8832 103.527C94.4523 103.527 94.0877 103.638 93.7894 103.86C93.4944 104.082 93.2707 104.392 93.1183 104.79C92.9658 105.187 92.8896 105.652 92.8896 106.182ZM103.365 110.154C102.612 110.154 101.964 109.993 101.421 109.672C100.881 109.347 100.463 108.891 100.168 108.305C99.8763 107.715 99.7305 107.024 99.7305 106.232C99.7305 105.449 99.8763 104.76 100.168 104.163C100.463 103.567 100.874 103.101 101.401 102.766C101.931 102.432 102.551 102.264 103.26 102.264C103.691 102.264 104.109 102.335 104.513 102.478C104.917 102.621 105.28 102.844 105.602 103.149C105.923 103.454 106.177 103.85 106.363 104.337C106.548 104.821 106.641 105.41 106.641 106.102V106.629H100.571V105.516H105.184C105.184 105.125 105.105 104.778 104.946 104.477C104.787 104.172 104.563 103.931 104.275 103.756C103.989 103.58 103.655 103.492 103.27 103.492C102.853 103.492 102.488 103.595 102.176 103.8C101.868 104.003 101.63 104.268 101.461 104.596C101.295 104.921 101.212 105.274 101.212 105.655V106.525C101.212 107.035 101.301 107.469 101.48 107.827C101.663 108.185 101.916 108.459 102.241 108.648C102.566 108.833 102.945 108.926 103.38 108.926C103.661 108.926 103.918 108.886 104.15 108.807C104.382 108.724 104.583 108.601 104.752 108.439C104.921 108.277 105.05 108.076 105.14 107.837L106.547 108.091C106.434 108.505 106.232 108.868 105.94 109.18C105.652 109.488 105.289 109.728 104.851 109.901C104.417 110.07 103.922 110.154 103.365 110.154ZM111.581 110.154C110.829 110.154 110.181 109.993 109.638 109.672C109.097 109.347 108.68 108.891 108.385 108.305C108.093 107.715 107.947 107.024 107.947 106.232C107.947 105.449 108.093 104.76 108.385 104.163C108.68 103.567 109.091 103.101 109.618 102.766C110.148 102.432 110.768 102.264 111.477 102.264C111.908 102.264 112.326 102.335 112.73 102.478C113.134 102.621 113.497 102.844 113.819 103.149C114.14 103.454 114.394 103.85 114.579 104.337C114.765 104.821 114.858 105.41 114.858 106.102V106.629H108.787V105.516H113.401C113.401 105.125 113.322 104.778 113.162 104.477C113.003 104.172 112.78 103.931 112.491 103.756C112.206 103.58 111.872 103.492 111.487 103.492C111.069 103.492 110.705 103.595 110.393 103.8C110.085 104.003 109.846 104.268 109.677 104.596C109.512 104.921 109.429 105.274 109.429 105.655V106.525C109.429 107.035 109.518 107.469 109.697 107.827C109.88 108.185 110.133 108.459 110.458 108.648C110.783 108.833 111.162 108.926 111.596 108.926C111.878 108.926 112.135 108.886 112.367 108.807C112.599 108.724 112.8 108.601 112.969 108.439C113.138 108.277 113.267 108.076 113.356 107.837L114.763 108.091C114.651 108.505 114.448 108.868 114.157 109.18C113.868 109.488 113.506 109.728 113.068 109.901C112.634 110.07 112.138 110.154 111.581 110.154ZM119.366 110.149C118.749 110.149 118.199 109.992 117.715 109.677C117.235 109.359 116.857 108.906 116.582 108.32C116.31 107.73 116.174 107.022 116.174 106.197C116.174 105.371 116.312 104.665 116.587 104.079C116.865 103.492 117.246 103.043 117.73 102.732C118.214 102.42 118.763 102.264 119.376 102.264C119.85 102.264 120.231 102.344 120.519 102.503C120.811 102.659 121.036 102.841 121.195 103.05C121.358 103.259 121.484 103.442 121.573 103.602H121.663V99.8182H123.149V110H121.697V108.812H121.573C121.484 108.974 121.354 109.16 121.185 109.369C121.02 109.577 120.791 109.76 120.499 109.915C120.208 110.071 119.83 110.149 119.366 110.149ZM119.694 108.881C120.121 108.881 120.483 108.769 120.778 108.543C121.076 108.315 121.301 107.998 121.454 107.594C121.61 107.189 121.688 106.719 121.688 106.182C121.688 105.652 121.611 105.187 121.459 104.79C121.306 104.392 121.083 104.082 120.788 103.86C120.493 103.638 120.128 103.527 119.694 103.527C119.246 103.527 118.874 103.643 118.575 103.875C118.277 104.107 118.052 104.424 117.899 104.825C117.75 105.226 117.675 105.678 117.675 106.182C117.675 106.692 117.752 107.151 117.904 107.559C118.057 107.967 118.282 108.29 118.58 108.528C118.882 108.764 119.253 108.881 119.694 108.881Z" fill="black"/>
<path d="M47.1186 139V128.818H50.7479C51.54 128.818 52.1963 128.962 52.7166 129.251C53.237 129.539 53.6264 129.933 53.8849 130.434C54.1435 130.931 54.2727 131.491 54.2727 132.114C54.2727 132.741 54.1418 133.304 53.88 133.805C53.6214 134.302 53.2304 134.696 52.7067 134.988C52.1863 135.276 51.5317 135.42 50.7429 135.42H48.2472V134.118H50.6037C51.1042 134.118 51.5102 134.032 51.8217 133.859C52.1333 133.684 52.362 133.445 52.5078 133.143C52.6536 132.842 52.7266 132.499 52.7266 132.114C52.7266 131.73 52.6536 131.388 52.5078 131.09C52.362 130.792 52.1316 130.558 51.8168 130.389C51.5052 130.22 51.0942 130.136 50.5838 130.136H48.6548V139H47.1186ZM58.1083 139.169C57.6244 139.169 57.1869 139.08 56.7958 138.901C56.4047 138.718 56.0948 138.455 55.8661 138.11C55.6407 137.765 55.5281 137.343 55.5281 136.842C55.5281 136.411 55.6109 136.057 55.7766 135.778C55.9424 135.5 56.1661 135.28 56.4478 135.117C56.7295 134.955 57.0444 134.832 57.3924 134.749C57.7404 134.666 58.0951 134.603 58.4563 134.56C58.9137 134.507 59.2849 134.464 59.57 134.431C59.855 134.395 60.0621 134.337 60.1914 134.257C60.3207 134.178 60.3853 134.048 60.3853 133.869V133.835C60.3853 133.4 60.2627 133.064 60.0174 132.825C59.7755 132.587 59.4142 132.467 58.9336 132.467C58.4331 132.467 58.0387 132.578 57.7504 132.8C57.4653 133.019 57.2681 133.263 57.1587 133.531L55.7617 133.213C55.9274 132.749 56.1694 132.375 56.4876 132.089C56.8091 131.801 57.1786 131.592 57.5962 131.463C58.0138 131.33 58.453 131.264 58.9137 131.264C59.2186 131.264 59.5418 131.301 59.8832 131.374C60.2279 131.443 60.5494 131.572 60.8477 131.761C61.1493 131.95 61.3962 132.22 61.5884 132.572C61.7807 132.92 61.8768 133.372 61.8768 133.929V139H60.4251V137.956H60.3654C60.2693 138.148 60.1251 138.337 59.9329 138.523C59.7406 138.708 59.4937 138.862 59.1921 138.985C58.8905 139.108 58.5292 139.169 58.1083 139.169ZM58.4315 137.976C58.8424 137.976 59.1938 137.895 59.4854 137.732C59.7804 137.57 60.0041 137.358 60.1566 137.096C60.3124 136.831 60.3903 136.547 60.3903 136.246V135.261C60.3372 135.314 60.2345 135.364 60.082 135.411C59.9329 135.454 59.7622 135.492 59.57 135.525C59.3777 135.555 59.1905 135.583 59.0082 135.609C58.8259 135.633 58.6734 135.652 58.5508 135.669C58.2624 135.705 57.9989 135.767 57.7603 135.853C57.525 135.939 57.3361 136.063 57.1935 136.226C57.0543 136.385 56.9847 136.597 56.9847 136.862C56.9847 137.23 57.1206 137.509 57.3924 137.697C57.6642 137.883 58.0105 137.976 58.4315 137.976ZM67.0584 142.023C66.4519 142.023 65.9299 141.943 65.4924 141.784C65.0582 141.625 64.7035 141.415 64.4284 141.153C64.1533 140.891 63.9479 140.604 63.812 140.293L65.0897 139.766C65.1792 139.911 65.2985 140.066 65.4476 140.228C65.6001 140.394 65.8056 140.535 66.0641 140.651C66.3259 140.767 66.6623 140.825 67.0733 140.825C67.6368 140.825 68.1025 140.687 68.4703 140.412C68.8382 140.14 69.0222 139.706 69.0222 139.109V137.608H68.9277C68.8382 137.77 68.709 137.951 68.54 138.15C68.3742 138.349 68.1455 138.521 67.8539 138.667C67.5622 138.813 67.1827 138.886 66.7154 138.886C66.1122 138.886 65.5686 138.745 65.0847 138.463C64.6041 138.178 64.223 137.759 63.9412 137.205C63.6628 136.648 63.5236 135.964 63.5236 135.152C63.5236 134.34 63.6612 133.644 63.9363 133.064C64.2147 132.484 64.5958 132.04 65.0797 131.732C65.5636 131.42 66.1122 131.264 66.7253 131.264C67.1993 131.264 67.5821 131.344 67.8738 131.503C68.1654 131.659 68.3925 131.841 68.5549 132.05C68.7206 132.259 68.8482 132.442 68.9377 132.602H69.0471V131.364H70.5037V139.169C70.5037 139.825 70.3513 140.364 70.0463 140.785C69.7414 141.206 69.3288 141.517 68.8084 141.719C68.2914 141.922 67.708 142.023 67.0584 142.023ZM67.0435 137.653C67.4711 137.653 67.8323 137.553 68.1273 137.354C68.4256 137.152 68.651 136.864 68.8034 136.489C68.9592 136.112 69.0371 135.659 69.0371 135.132C69.0371 134.618 68.9609 134.166 68.8084 133.775C68.656 133.384 68.4322 133.079 68.1373 132.86C67.8423 132.638 67.4777 132.527 67.0435 132.527C66.5961 132.527 66.2232 132.643 65.9249 132.875C65.6266 133.104 65.4012 133.415 65.2488 133.81C65.0996 134.204 65.025 134.645 65.025 135.132C65.025 135.633 65.1013 136.072 65.2537 136.45C65.4062 136.827 65.6316 137.122 65.9299 137.335C66.2315 137.547 66.6027 137.653 67.0435 137.653ZM75.7885 139.154C75.0362 139.154 74.3882 138.993 73.8446 138.672C73.3044 138.347 72.8868 137.891 72.5918 137.305C72.3001 136.715 72.1543 136.024 72.1543 135.232C72.1543 134.449 72.3001 133.76 72.5918 133.163C72.8868 132.567 73.2978 132.101 73.8248 131.766C74.3551 131.432 74.9748 131.264 75.6841 131.264C76.115 131.264 76.5326 131.335 76.937 131.478C77.3413 131.621 77.7042 131.844 78.0257 132.149C78.3472 132.454 78.6008 132.85 78.7864 133.337C78.972 133.821 79.0648 134.41 79.0648 135.102V135.629H72.9945V134.516H77.6081C77.6081 134.125 77.5286 133.778 77.3695 133.477C77.2104 133.172 76.9867 132.931 76.6983 132.756C76.4133 132.58 76.0785 132.492 75.6941 132.492C75.2765 132.492 74.9119 132.595 74.6003 132.8C74.2921 133.003 74.0534 133.268 73.8844 133.596C73.7187 133.921 73.6358 134.274 73.6358 134.655V135.525C73.6358 136.035 73.7253 136.469 73.9043 136.827C74.0866 137.185 74.3401 137.459 74.665 137.648C74.9898 137.833 75.3693 137.926 75.8034 137.926C76.0852 137.926 76.342 137.886 76.574 137.807C76.806 137.724 77.0066 137.601 77.1756 137.439C77.3446 137.277 77.4739 137.076 77.5634 136.837L78.9703 137.091C78.8577 137.505 78.6555 137.868 78.3638 138.18C78.0755 138.488 77.7125 138.728 77.275 138.901C76.8408 139.07 76.3453 139.154 75.7885 139.154ZM90.1415 133.228L88.7942 133.467C88.7379 133.294 88.6484 133.13 88.5257 132.974C88.4064 132.819 88.244 132.691 88.0385 132.592C87.833 132.492 87.5762 132.442 87.2679 132.442C86.847 132.442 86.4957 132.537 86.214 132.726C85.9322 132.911 85.7914 133.152 85.7914 133.447C85.7914 133.702 85.8858 133.907 86.0748 134.063C86.2637 134.219 86.5686 134.347 86.9895 134.446L88.2026 134.724C88.9052 134.887 89.4289 135.137 89.7736 135.475C90.1183 135.813 90.2907 136.252 90.2907 136.793C90.2907 137.25 90.1581 137.658 89.8929 138.016C89.6311 138.37 89.2649 138.649 88.7942 138.851C88.3269 139.053 87.785 139.154 87.1685 139.154C86.3134 139.154 85.6157 138.972 85.0755 138.607C84.5352 138.239 84.2038 137.717 84.0811 137.041L85.5179 136.822C85.6074 137.197 85.7914 137.48 86.0698 137.673C86.3482 137.862 86.7111 137.956 87.1586 137.956C87.6458 137.956 88.0352 137.855 88.3269 137.653C88.6185 137.447 88.7644 137.197 88.7644 136.902C88.7644 136.663 88.6749 136.463 88.4959 136.3C88.3203 136.138 88.0501 136.015 87.6855 135.933L86.3929 135.649C85.6803 135.487 85.1533 135.228 84.812 134.874C84.4739 134.519 84.3049 134.07 84.3049 133.526C84.3049 133.076 84.4308 132.681 84.6827 132.343C84.9346 132.005 85.2826 131.741 85.7267 131.553C86.1709 131.36 86.6796 131.264 87.253 131.264C88.0783 131.264 88.7279 131.443 89.2019 131.801C89.6758 132.156 89.9891 132.631 90.1415 133.228ZM91.9251 141.864V131.364H93.3768V132.602H93.5011C93.5872 132.442 93.7115 132.259 93.8739 132.05C94.0363 131.841 94.2617 131.659 94.5501 131.503C94.8384 131.344 95.2196 131.264 95.6935 131.264C96.31 131.264 96.8602 131.42 97.3441 131.732C97.828 132.043 98.2075 132.492 98.4826 133.079C98.761 133.665 98.9002 134.371 98.9002 135.197C98.9002 136.022 98.7627 136.73 98.4876 137.32C98.2125 137.906 97.8346 138.359 97.354 138.677C96.8735 138.992 96.3249 139.149 95.7085 139.149C95.2444 139.149 94.8649 139.071 94.57 138.915C94.2783 138.76 94.0496 138.577 93.8839 138.369C93.7182 138.16 93.5906 137.974 93.5011 137.812H93.4116V141.864H91.9251ZM93.3817 135.182C93.3817 135.719 93.4596 136.189 93.6154 136.594C93.7712 136.998 93.9966 137.315 94.2915 137.543C94.5865 137.769 94.9478 137.881 95.3754 137.881C95.8195 137.881 96.1907 137.764 96.489 137.528C96.7873 137.29 97.0127 136.967 97.1651 136.559C97.3209 136.151 97.3988 135.692 97.3988 135.182C97.3988 134.678 97.3226 134.226 97.1701 133.825C97.021 133.424 96.7956 133.107 96.494 132.875C96.1957 132.643 95.8228 132.527 95.3754 132.527C94.9445 132.527 94.5799 132.638 94.2816 132.86C93.9866 133.082 93.7629 133.392 93.6104 133.79C93.458 134.187 93.3817 134.652 93.3817 135.182ZM103.857 139.154C103.105 139.154 102.457 138.993 101.913 138.672C101.373 138.347 100.955 137.891 100.66 137.305C100.368 136.715 100.223 136.024 100.223 135.232C100.223 134.449 100.368 133.76 100.66 133.163C100.955 132.567 101.366 132.101 101.893 131.766C102.423 131.432 103.043 131.264 103.752 131.264C104.183 131.264 104.601 131.335 105.005 131.478C105.41 131.621 105.773 131.844 106.094 132.149C106.416 132.454 106.669 132.85 106.855 133.337C107.04 133.821 107.133 134.41 107.133 135.102V135.629H101.063V134.516H105.676C105.676 134.125 105.597 133.778 105.438 133.477C105.279 133.172 105.055 132.931 104.767 132.756C104.482 132.58 104.147 132.492 103.762 132.492C103.345 132.492 102.98 132.595 102.669 132.8C102.36 133.003 102.122 133.268 101.953 133.596C101.787 133.921 101.704 134.274 101.704 134.655V135.525C101.704 136.035 101.794 136.469 101.973 136.827C102.155 137.185 102.408 137.459 102.733 137.648C103.058 137.833 103.438 137.926 103.872 137.926C104.154 137.926 104.41 137.886 104.642 137.807C104.874 137.724 105.075 137.601 105.244 137.439C105.413 137.277 105.542 137.076 105.632 136.837L107.039 137.091C106.926 137.505 106.724 137.868 106.432 138.18C106.144 138.488 105.781 138.728 105.343 138.901C104.909 139.07 104.414 139.154 103.857 139.154ZM112.074 139.154C111.321 139.154 110.673 138.993 110.13 138.672C109.59 138.347 109.172 137.891 108.877 137.305C108.585 136.715 108.439 136.024 108.439 135.232C108.439 134.449 108.585 133.76 108.877 133.163C109.172 132.567 109.583 132.101 110.11 131.766C110.64 131.432 111.26 131.264 111.969 131.264C112.4 131.264 112.818 131.335 113.222 131.478C113.626 131.621 113.989 131.844 114.311 132.149C114.632 132.454 114.886 132.85 115.072 133.337C115.257 133.821 115.35 134.41 115.35 135.102V135.629H109.28V134.516H113.893C113.893 134.125 113.814 133.778 113.655 133.477C113.496 133.172 113.272 132.931 112.983 132.756C112.698 132.58 112.364 132.492 111.979 132.492C111.562 132.492 111.197 132.595 110.885 132.8C110.577 133.003 110.339 133.268 110.17 133.596C110.004 133.921 109.921 134.274 109.921 134.655V135.525C109.921 136.035 110.01 136.469 110.189 136.827C110.372 137.185 110.625 137.459 110.95 137.648C111.275 137.833 111.654 137.926 112.089 137.926C112.37 137.926 112.627 137.886 112.859 137.807C113.091 137.724 113.292 137.601 113.461 137.439C113.63 137.277 113.759 137.076 113.849 136.837L115.256 137.091C115.143 137.505 114.941 137.868 114.649 138.18C114.361 138.488 113.998 138.728 113.56 138.901C113.126 139.07 112.631 139.154 112.074 139.154ZM119.858 139.149C119.241 139.149 118.691 138.992 118.207 138.677C117.727 138.359 117.349 137.906 117.074 137.32C116.802 136.73 116.666 136.022 116.666 135.197C116.666 134.371 116.804 133.665 117.079 133.079C117.357 132.492 117.738 132.043 118.222 131.732C118.706 131.42 119.255 131.264 119.868 131.264C120.342 131.264 120.723 131.344 121.011 131.503C121.303 131.659 121.528 131.841 121.688 132.05C121.85 132.259 121.976 132.442 122.065 132.602H122.155V128.818H123.641V139H122.19V137.812H122.065C121.976 137.974 121.847 138.16 121.678 138.369C121.512 138.577 121.283 138.76 120.991 138.915C120.7 139.071 120.322 139.149 119.858 139.149ZM120.186 137.881C120.614 137.881 120.975 137.769 121.27 137.543C121.568 137.315 121.794 136.998 121.946 136.594C122.102 136.189 122.18 135.719 122.18 135.182C122.18 134.652 122.103 134.187 121.951 133.79C121.799 133.392 121.575 133.082 121.28 132.86C120.985 132.638 120.62 132.527 120.186 132.527C119.739 132.527 119.366 132.643 119.067 132.875C118.769 133.107 118.544 133.424 118.391 133.825C118.242 134.226 118.168 134.678 118.168 135.182C118.168 135.692 118.244 136.151 118.396 136.559C118.549 136.967 118.774 137.29 119.072 137.528C119.374 137.764 119.745 137.881 120.186 137.881Z" fill="black"/>
<path d="M47.1186 168V157.818H50.7479C51.54 157.818 52.1963 157.962 52.7166 158.251C53.237 158.539 53.6264 158.933 53.8849 159.434C54.1435 159.931 54.2727 160.491 54.2727 161.114C54.2727 161.741 54.1418 162.304 53.88 162.805C53.6214 163.302 53.2304 163.696 52.7067 163.988C52.1863 164.276 51.5317 164.42 50.7429 164.42H48.2472V163.118H50.6037C51.1042 163.118 51.5102 163.032 51.8217 162.859C52.1333 162.684 52.362 162.445 52.5078 162.143C52.6536 161.842 52.7266 161.499 52.7266 161.114C52.7266 160.73 52.6536 160.388 52.5078 160.09C52.362 159.792 52.1316 159.558 51.8168 159.389C51.5052 159.22 51.0942 159.136 50.5838 159.136H48.6548V168H47.1186ZM59.0753 168.154C58.3594 168.154 57.7346 167.99 57.201 167.662C56.6674 167.334 56.2531 166.875 55.9581 166.285C55.6631 165.695 55.5156 165.005 55.5156 164.217C55.5156 163.424 55.6631 162.732 55.9581 162.138C56.2531 161.545 56.6674 161.085 57.201 160.756C57.7346 160.428 58.3594 160.264 59.0753 160.264C59.7912 160.264 60.416 160.428 60.9496 160.756C61.4832 161.085 61.8975 161.545 62.1925 162.138C62.4875 162.732 62.6349 163.424 62.6349 164.217C62.6349 165.005 62.4875 165.695 62.1925 166.285C61.8975 166.875 61.4832 167.334 60.9496 167.662C60.416 167.99 59.7912 168.154 59.0753 168.154ZM59.0803 166.906C59.5443 166.906 59.9287 166.784 60.2337 166.538C60.5386 166.293 60.764 165.967 60.9098 165.559C61.0589 165.151 61.1335 164.702 61.1335 164.212C61.1335 163.724 61.0589 163.277 60.9098 162.869C60.764 162.458 60.5386 162.129 60.2337 161.88C59.9287 161.631 59.5443 161.507 59.0803 161.507C58.6129 161.507 58.2251 161.631 57.9169 161.88C57.612 162.129 57.3849 162.458 57.2358 162.869C57.09 163.277 57.017 163.724 57.017 164.212C57.017 164.702 57.09 165.151 57.2358 165.559C57.3849 165.967 57.612 166.293 57.9169 166.538C58.2251 166.784 58.6129 166.906 59.0803 166.906ZM65.7173 168L63.4702 160.364H65.0064L66.5028 165.972H66.5774L68.0788 160.364H69.6151L71.1065 165.947H71.1811L72.6676 160.364H74.2038L71.9616 168H70.4453L68.8942 162.487H68.7798L67.2287 168H65.7173ZM78.6733 168.154C77.9209 168.154 77.273 167.993 76.7294 167.672C76.1892 167.347 75.7715 166.891 75.4766 166.305C75.1849 165.715 75.0391 165.024 75.0391 164.232C75.0391 163.449 75.1849 162.76 75.4766 162.163C75.7715 161.567 76.1825 161.101 76.7095 160.766C77.2398 160.432 77.8596 160.264 78.5689 160.264C78.9998 160.264 79.4174 160.335 79.8217 160.478C80.2261 160.621 80.589 160.844 80.9105 161.149C81.232 161.454 81.4856 161.85 81.6712 162.337C81.8568 162.821 81.9496 163.41 81.9496 164.102V164.629H75.8793V163.516H80.4929C80.4929 163.125 80.4134 162.778 80.2543 162.477C80.0952 162.172 79.8714 161.931 79.5831 161.756C79.2981 161.58 78.9633 161.492 78.5788 161.492C78.1612 161.492 77.7966 161.595 77.4851 161.8C77.1768 162.003 76.9382 162.268 76.7692 162.596C76.6035 162.921 76.5206 163.274 76.5206 163.655V164.525C76.5206 165.035 76.6101 165.469 76.7891 165.827C76.9714 166.185 77.2249 166.459 77.5497 166.648C77.8745 166.833 78.254 166.926 78.6882 166.926C78.9699 166.926 79.2268 166.886 79.4588 166.807C79.6908 166.724 79.8913 166.601 80.0604 166.439C80.2294 166.277 80.3587 166.076 80.4482 165.837L81.8551 166.091C81.7424 166.505 81.5402 166.868 81.2486 167.18C80.9602 167.488 80.5973 167.728 80.1598 167.901C79.7256 168.07 79.2301 168.154 78.6733 168.154ZM83.5989 168V160.364H85.0357V161.577H85.1152C85.2544 161.166 85.4997 160.843 85.851 160.607C86.2057 160.369 86.6067 160.249 87.0542 160.249C87.147 160.249 87.2563 160.253 87.3823 160.259C87.5115 160.266 87.6126 160.274 87.6855 160.284V161.706C87.6259 161.689 87.5198 161.671 87.3674 161.651C87.2149 161.628 87.0624 161.616 86.91 161.616C86.5587 161.616 86.2454 161.691 85.9703 161.84C85.6986 161.986 85.4831 162.19 85.324 162.452C85.165 162.71 85.0854 163.005 85.0854 163.337V168H83.5989Z" fill="black"/>
</g>
<defs>
<filter id="filter0_d_26_53" x="0" y="0" width="352" height="224" filterUnits="userSpaceOnUse" color-interpolation-filters="sRGB">
<feFlood flood-opacity="0" result="BackgroundImageFix"/>
<feColorMatrix in="SourceAlpha" type="matrix" values="0 0 0 0 0 0 0 0 0 0 0 0 0 0 0 0 0 0 127 0" result="hardAlpha"/>
<feOffset/>
<feGaussianBlur stdDeviation="10"/>
<feComposite in2="hardAlpha" operator="out"/>
<feColorMatrix type="matrix" values="0 0 0 0 0 0 0 0 0 0 0 0 0 0 0 0 0 0 0.01 0"/>
<feBlend mode="normal" in2="BackgroundImageFix" result="effect1_dropShadow_26_53"/>
<feBlend mode="normal" in="SourceGraphic" in2="effect1_dropShadow_26_53" result="shape"/>
</filter>
</defs>
</svg>
